<svg id="svg" version="1.1" xmlns="http://www.w3.org/2000/svg" xmlns:xlink="http://www.w3.org/1999/xlink" width="400" height="400" viewBox="0, 0, 400,400"><g id="svgg"><path id="path0" d="M169.543 109.044 C 168.411 109.642,167.025 112.353,167.009 114.000 C 167.004 114.604,166.795 114.958,166.481 114.894 C 166.196 114.835,166.006 115.015,166.059 115.294 C 166.202 116.036,165.597 117.696,164.889 118.502 C 164.395 119.064,164.363 119.401,164.728 120.202 C 165.274 121.400,166.000 121.513,166.000 120.400 C 166.000 119.960,166.201 119.600,166.447 119.600 C 166.698 119.600,166.801 119.247,166.682 118.793 C 166.566 118.349,166.737 117.720,167.061 117.396 C 167.386 117.072,167.538 116.623,167.400 116.400 C 167.262 116.177,167.441 115.882,167.798 115.746 C 168.154 115.609,168.349 115.243,168.230 114.933 C 168.111 114.623,168.291 114.263,168.630 114.133 C 168.969 114.003,169.161 113.676,169.058 113.407 C 168.597 112.206,170.322 111.600,174.205 111.600 C 176.974 111.600,178.000 111.465,178.000 111.100 C 178.000 110.407,192.880 110.441,193.111 111.134 C 193.214 111.442,194.464 111.600,196.791 111.600 C 199.254 111.600,200.364 111.750,200.481 112.100 C 200.572 112.375,200.627 134.110,200.603 160.400 C 200.566 200.027,200.651 208.294,201.098 208.748 C 201.854 209.514,202.160 209.045,201.546 208.062 C 201.145 207.419,201.136 206.840,201.504 205.323 C 202.045 203.100,202.009 114.561,201.467 113.700 C 201.294 113.425,201.313 113.200,201.510 113.200 C 202.034 113.200,201.944 111.887,201.381 111.324 C 201.114 111.057,200.759 110.965,200.593 111.119 C 200.427 111.274,200.497 111.006,200.747 110.524 C 200.997 110.043,201.052 109.556,200.868 109.442 C 200.099 108.967,173.898 109.248,173.048 109.741 C 172.582 110.011,171.930 110.201,171.600 110.162 C 171.270 110.124,170.775 110.072,170.500 110.046 C 170.225 110.021,170.000 109.808,170.000 109.573 C 170.000 109.313,170.350 109.257,170.897 109.431 C 171.694 109.684,171.733 109.642,171.248 109.058 C 170.948 108.696,170.679 108.419,170.651 108.442 C 170.623 108.466,170.124 108.736,169.543 109.044 M21.900 109.248 C 21.515 109.463,21.200 109.980,21.200 110.396 C 21.200 110.812,21.040 111.252,20.845 111.372 C 20.470 111.604,20.574 115.711,20.972 116.355 C 21.100 116.562,20.979 116.823,20.702 116.934 C 20.303 117.095,20.303 117.143,20.700 117.168 C 20.975 117.186,21.200 117.481,21.200 117.824 C 21.200 118.167,21.022 118.337,20.805 118.203 C 20.578 118.063,20.511 118.223,20.647 118.579 C 20.778 118.921,21.053 119.200,21.257 119.200 C 21.617 119.200,21.635 126.247,21.277 126.943 C 21.179 127.131,20.945 127.041,20.756 126.743 C 20.537 126.397,20.424 126.853,20.446 128.000 C 20.474 129.505,20.533 129.636,20.807 128.800 C 21.112 127.867,21.131 127.885,21.084 129.072 C 21.057 129.772,20.891 130.256,20.717 130.149 C 20.543 130.041,20.400 130.853,20.400 131.953 C 20.400 133.053,20.583 134.066,20.807 134.204 C 21.030 134.342,21.079 134.668,20.915 134.928 C 20.457 135.655,20.403 146.800,20.858 146.800 C 21.072 146.800,21.105 147.025,20.931 147.300 C 20.430 148.093,20.467 164.148,20.971 164.500 C 21.273 164.711,21.274 164.889,20.975 165.100 C 20.464 165.461,20.433 170.800,20.942 170.800 C 21.138 170.800,21.118 171.025,20.899 171.300 C 20.475 171.831,20.498 172.721,20.982 174.487 C 21.362 175.871,21.496 268.766,21.119 268.900 C 20.672 269.060,20.464 272.133,20.851 272.876 C 21.044 273.247,21.053 273.644,20.871 273.756 C 20.432 274.027,20.393 284.480,20.829 285.022 C 21.015 285.253,21.233 286.311,21.313 287.372 C 21.446 289.140,21.335 290.165,20.605 293.903 C 20.427 294.818,20.513 295.268,20.894 295.415 C 21.437 295.623,21.402 298.400,20.856 298.400 C 20.715 298.400,20.569 299.210,20.531 300.200 C 20.492 301.190,20.622 302.000,20.818 302.000 C 21.014 302.000,21.085 302.234,20.976 302.519 C 20.494 303.775,22.568 304.831,25.815 304.982 C 28.753 305.118,31.218 304.685,30.662 304.129 C 30.279 303.745,27.614 303.757,27.486 304.143 C 27.423 304.331,26.704 304.301,25.889 304.076 C 24.984 303.826,24.317 303.811,24.176 304.038 C 22.710 306.411,22.629 298.398,22.753 163.300 L 22.800 111.600 38.000 111.600 C 48.846 111.600,53.200 111.727,53.200 112.043 C 53.200 112.286,53.464 112.384,53.787 112.260 C 54.474 111.997,55.004 112.627,54.407 112.996 C 53.847 113.342,53.892 114.103,54.462 113.913 C 55.440 113.587,55.580 112.105,54.704 111.338 C 54.241 110.932,53.994 110.825,54.155 111.100 C 54.316 111.375,54.271 111.600,54.055 111.600 C 53.840 111.600,53.545 111.060,53.400 110.400 C 53.148 109.252,52.216 108.751,51.931 109.608 C 51.712 110.263,47.613 110.146,46.933 109.466 C 46.466 109.000,45.941 109.181,46.253 109.700 C 46.488 110.090,46.425 110.096,45.969 109.728 C 45.138 109.056,30.922 109.001,30.120 109.666 C 29.725 109.994,29.453 110.015,29.270 109.730 C 29.121 109.500,28.040 109.221,26.866 109.111 C 25.693 109.001,24.967 109.056,25.255 109.234 C 25.542 109.411,25.631 109.701,25.452 109.878 C 24.888 110.437,23.416 110.227,23.000 109.528 C 22.701 109.026,22.423 108.955,21.900 109.248 M294.291 109.253 C 293.911 109.466,293.600 109.982,293.600 110.400 C 293.600 110.818,293.305 111.325,292.944 111.527 C 292.508 111.771,292.404 112.081,292.634 112.447 C 292.824 112.751,292.928 113.315,292.865 113.700 C 292.802 114.085,292.908 114.400,293.100 114.400 C 293.293 114.400,293.417 116.830,293.375 119.800 C 293.333 122.770,293.456 125.200,293.649 125.200 C 293.842 125.200,294.000 125.650,294.000 126.200 C 294.000 126.750,293.796 127.200,293.547 127.200 C 293.252 127.200,293.168 127.744,293.305 128.771 C 293.447 129.824,293.315 130.629,292.905 131.214 C 292.541 131.734,292.449 132.191,292.676 132.344 C 292.886 132.485,293.163 132.885,293.291 133.233 C 293.461 133.697,293.937 133.830,295.062 133.732 C 296.968 133.564,296.931 133.564,301.805 133.713 C 304.008 133.780,306.045 133.980,306.332 134.158 C 306.619 134.335,306.976 134.347,307.127 134.185 C 307.277 134.023,307.185 133.813,306.922 133.719 C 306.660 133.625,306.544 133.290,306.665 132.974 C 306.851 132.491,305.929 132.400,300.843 132.400 L 294.800 132.400 294.800 122.000 L 294.800 111.600 297.200 111.600 C 298.533 111.600,299.600 111.422,299.600 111.200 C 299.600 110.960,301.200 110.800,303.600 110.800 C 306.000 110.800,307.600 110.960,307.600 111.200 C 307.600 111.442,309.333 111.600,312.000 111.600 C 314.667 111.600,316.400 111.758,316.400 112.000 C 316.400 112.577,317.890 112.493,318.167 111.900 C 318.353 111.500,318.447 111.500,318.633 111.900 C 318.774 112.201,319.651 112.400,320.833 112.400 C 321.915 112.400,322.800 112.580,322.800 112.800 C 322.800 113.377,324.290 113.293,324.567 112.700 C 324.753 112.300,324.847 112.300,325.033 112.700 C 325.162 112.975,325.612 113.200,326.033 113.200 C 326.455 113.200,326.800 113.385,326.800 113.610 C 326.800 113.851,327.740 113.990,329.079 113.946 C 330.513 113.899,331.415 114.044,331.512 114.336 C 331.597 114.591,332.192 114.800,332.833 114.800 C 333.475 114.800,334.000 114.980,334.000 115.200 C 334.000 115.420,334.540 115.600,335.200 115.600 C 335.860 115.600,336.400 115.780,336.400 116.000 C 336.400 116.220,336.940 116.400,337.600 116.400 C 338.260 116.400,338.800 116.580,338.800 116.800 C 338.800 117.020,339.120 117.200,339.512 117.200 C 339.903 117.200,340.483 117.560,340.800 118.000 C 341.117 118.440,341.697 118.800,342.088 118.800 C 342.480 118.800,342.800 118.980,342.800 119.200 C 342.800 119.420,343.160 119.600,343.600 119.600 C 344.040 119.600,344.400 119.780,344.400 120.000 C 344.400 120.220,344.900 120.400,345.512 120.400 C 346.165 120.400,346.861 120.730,347.200 121.200 C 347.517 121.640,348.057 122.000,348.400 122.000 C 348.743 122.000,349.283 122.360,349.600 122.800 C 349.917 123.240,350.457 123.600,350.800 123.600 C 351.143 123.600,351.683 123.960,352.000 124.400 C 352.317 124.840,352.817 125.200,353.110 125.200 C 353.404 125.200,354.704 126.280,356.000 127.600 C 357.296 128.920,358.514 130.000,358.709 130.000 C 358.903 130.000,358.982 130.540,358.885 131.200 C 358.737 132.210,358.843 132.400,359.555 132.400 C 360.148 132.400,360.400 132.652,360.400 133.243 C 360.400 133.814,360.586 134.014,360.980 133.863 C 361.388 133.707,361.486 133.833,361.310 134.290 C 361.126 134.770,361.230 134.874,361.710 134.690 C 362.146 134.523,362.293 134.614,362.157 134.969 C 362.045 135.259,362.212 135.596,362.528 135.717 C 362.894 135.857,363.032 136.298,362.910 136.935 C 362.755 137.747,362.895 137.959,363.660 138.067 C 364.297 138.157,364.562 138.425,364.482 138.900 C 364.411 139.326,364.618 139.600,365.009 139.600 C 365.472 139.600,365.582 139.826,365.400 140.400 C 365.221 140.963,365.328 141.200,365.761 141.200 C 366.253 141.200,366.330 141.532,366.145 142.858 C 365.929 144.397,365.973 144.500,366.758 144.295 C 367.485 144.105,367.637 144.292,367.853 145.643 C 368.056 146.913,368.209 147.125,368.652 146.757 C 369.380 146.153,369.351 144.833,368.603 144.546 C 368.219 144.398,368.084 144.005,368.225 143.442 C 368.431 142.623,367.720 140.998,365.299 136.755 C 364.846 135.960,364.233 134.880,363.938 134.355 C 363.642 133.830,363.310 133.310,363.199 133.200 C 363.089 133.090,362.744 132.505,362.432 131.900 C 362.120 131.295,361.723 130.800,361.551 130.800 C 361.100 130.800,359.400 129.038,359.400 128.571 C 359.400 128.355,358.590 127.463,357.600 126.589 C 356.610 125.715,355.737 124.855,355.660 124.679 C 355.344 123.956,353.369 122.403,352.964 122.559 C 352.360 122.790,351.353 122.114,351.733 121.733 C 351.904 121.563,352.211 121.688,352.416 122.012 C 352.620 122.335,352.791 122.396,352.794 122.146 C 352.802 121.529,350.768 120.235,349.891 120.299 C 349.502 120.328,349.287 120.182,349.415 119.976 C 349.543 119.769,349.367 119.600,349.024 119.600 C 348.681 119.600,348.400 119.450,348.400 119.268 C 348.400 118.926,347.784 118.587,345.000 117.398 C 344.120 117.022,342.410 116.264,341.200 115.715 C 337.721 114.136,334.995 113.200,333.872 113.200 C 333.502 113.200,333.200 113.064,333.200 112.897 C 333.200 112.447,330.216 111.600,328.630 111.600 C 327.869 111.600,327.151 111.444,327.033 111.253 C 326.694 110.704,322.642 110.174,317.069 109.950 C 315.347 109.881,313.868 109.710,313.782 109.570 C 313.515 109.140,300.464 109.173,300.197 109.605 C 300.063 109.822,299.738 109.997,299.476 109.994 C 299.190 109.990,299.239 109.833,299.600 109.600 C 300.046 109.312,299.816 109.211,298.700 109.206 C 297.875 109.203,297.200 109.380,297.200 109.600 C 297.200 109.820,296.739 110.000,296.176 110.000 C 295.613 110.000,295.256 109.832,295.383 109.628 C 295.738 109.053,295.063 108.821,294.291 109.253 M251.275 109.792 C 250.870 110.430,250.841 119.178,251.243 119.427 C 251.454 119.557,251.450 119.932,251.234 120.336 C 250.689 121.354,250.814 161.250,251.365 161.965 C 251.685 162.381,251.668 162.575,251.300 162.698 C 250.685 162.905,250.639 164.879,251.235 165.475 C 251.548 165.788,251.548 165.985,251.235 166.178 C 250.996 166.326,250.800 166.627,250.800 166.847 C 250.800 167.067,251.025 167.112,251.300 166.947 C 251.687 166.714,251.695 166.777,251.336 167.223 C 250.820 167.864,250.774 170.800,251.279 170.800 C 251.456 170.800,251.600 170.991,251.600 171.224 C 251.600 171.457,251.431 171.543,251.224 171.415 C 250.758 171.127,250.813 172.829,251.290 173.464 C 251.496 173.738,251.468 174.035,251.222 174.187 C 250.713 174.501,250.761 238.000,251.269 238.000 C 251.451 238.000,251.600 238.900,251.600 240.000 C 251.600 241.100,251.465 242.000,251.300 242.000 C 250.930 241.999,250.990 245.336,251.371 245.953 C 251.523 246.199,251.502 246.400,251.324 246.400 C 251.146 246.400,250.973 246.859,250.941 247.420 C 250.906 248.029,251.067 248.378,251.341 248.286 C 251.593 248.202,251.800 247.938,251.800 247.700 C 251.800 247.462,251.935 247.132,252.100 246.967 C 252.265 246.802,252.400 216.277,252.400 179.133 L 252.400 111.600 256.000 111.600 C 258.741 111.600,259.600 111.472,259.600 111.064 C 259.600 110.718,260.031 110.554,260.816 110.601 C 261.484 110.641,262.127 110.519,262.243 110.330 C 262.360 110.141,262.652 110.108,262.891 110.257 C 263.131 110.405,266.215 110.560,269.743 110.602 C 274.174 110.654,276.207 110.820,276.313 111.139 C 276.564 111.892,281.061 111.740,281.357 110.967 C 282.029 109.216,282.394 109.256,266.567 109.322 C 256.850 109.362,251.442 109.528,251.275 109.792 M54.942 115.433 C 54.873 116.595,55.414 116.696,55.986 115.626 C 56.528 114.613,56.520 114.579,55.700 114.518 C 55.226 114.482,54.981 114.777,54.942 115.433 M56.583 117.517 C 56.564 118.973,57.792 120.433,57.898 119.080 C 57.936 118.596,57.659 117.795,57.282 117.301 L 56.598 116.402 56.583 117.517 M57.200 121.213 C 57.200 121.811,57.383 122.016,57.781 121.863 C 58.443 121.609,59.748 123.837,59.332 124.510 C 59.185 124.747,59.271 124.803,59.532 124.642 C 59.853 124.443,59.942 124.839,59.832 125.980 C 59.709 127.252,59.811 127.600,60.305 127.600 C 60.650 127.600,60.815 127.482,60.670 127.337 C 60.525 127.192,60.583 126.861,60.799 126.602 C 61.175 126.149,60.509 124.285,59.012 121.600 C 58.278 120.282,57.200 120.052,57.200 121.213 M163.803 120.805 C 164.095 121.278,162.803 124.400,162.315 124.400 C 162.134 124.400,162.098 124.852,162.237 125.405 C 162.449 126.249,162.376 126.366,161.780 126.137 C 161.199 125.914,161.113 126.026,161.305 126.757 C 161.454 127.329,161.335 127.727,160.971 127.866 C 160.660 127.986,160.509 128.253,160.637 128.459 C 160.764 128.666,160.668 129.077,160.422 129.374 C 160.176 129.670,159.935 130.455,159.887 131.117 C 159.839 131.780,159.705 132.264,159.589 132.193 C 159.211 131.960,158.085 134.291,158.361 134.736 C 158.875 135.569,160.488 134.774,160.298 133.780 C 160.168 133.100,160.275 132.931,160.724 133.103 C 161.221 133.294,161.283 133.032,161.083 131.566 C 160.951 130.595,160.938 130.025,161.055 130.300 C 161.492 131.331,162.086 130.768,161.898 129.500 C 161.750 128.501,161.919 128.002,162.627 127.343 C 163.247 126.766,163.475 126.210,163.326 125.637 C 163.146 124.949,163.238 124.840,163.816 125.062 C 164.397 125.285,164.487 125.175,164.302 124.467 C 164.145 123.866,164.257 123.600,164.666 123.600 C 165.315 123.600,165.315 121.791,164.666 120.900 C 164.234 120.306,163.441 120.219,163.803 120.805 M60.801 128.000 C 60.315 128.300,60.335 128.400,60.928 128.628 C 61.773 128.952,62.063 128.749,61.668 128.110 C 61.484 127.812,61.168 127.772,60.801 128.000 M62.263 131.470 C 61.774 131.959,61.996 133.200,62.571 133.200 C 63.324 133.200,64.470 134.363,64.180 134.832 C 63.870 135.335,64.367 136.067,64.826 135.784 C 65.039 135.653,64.938 135.053,64.590 134.381 C 64.257 133.736,63.942 133.071,63.892 132.904 C 63.841 132.737,63.652 132.649,63.470 132.710 C 63.289 132.770,63.242 132.656,63.366 132.455 C 63.642 132.008,62.630 131.103,62.263 131.470 M310.972 133.646 C 310.888 133.781,310.378 133.844,309.838 133.784 C 309.298 133.725,308.777 133.884,308.679 134.138 C 308.420 134.814,315.647 134.966,316.074 134.294 C 316.246 134.022,316.391 133.677,316.394 133.527 C 316.401 133.191,311.183 133.305,310.972 133.646 M316.806 134.400 C 316.831 135.199,317.658 135.682,318.731 135.525 C 319.448 135.420,319.920 135.517,319.876 135.762 C 319.834 135.990,320.430 136.181,321.200 136.184 C 321.970 136.188,322.798 136.445,323.039 136.757 C 323.281 137.068,323.666 137.207,323.894 137.066 C 324.122 136.924,324.539 137.085,324.819 137.423 C 325.099 137.760,325.556 137.949,325.835 137.842 C 326.114 137.735,326.557 137.907,326.820 138.224 C 327.083 138.541,327.711 138.800,328.216 138.800 C 328.720 138.800,329.195 138.986,329.271 139.214 C 329.356 139.469,329.714 139.405,330.204 139.047 C 330.641 138.727,330.854 138.321,330.678 138.144 C 330.501 137.968,330.186 138.088,329.978 138.412 C 329.669 138.893,329.554 138.834,329.350 138.089 C 329.167 137.421,328.901 137.241,328.350 137.416 C 327.824 137.583,327.600 137.457,327.600 136.995 C 327.600 136.471,327.354 136.390,326.400 136.600 C 325.462 136.806,325.200 136.726,325.200 136.232 C 325.200 135.495,324.362 135.398,323.702 136.058 C 323.359 136.401,323.305 136.286,323.485 135.595 C 323.711 134.733,323.635 134.690,322.287 134.908 C 321.125 135.097,320.891 135.028,321.073 134.553 C 321.259 134.070,320.896 133.985,319.050 134.082 C 317.812 134.146,316.803 134.289,316.806 134.400 M158.400 135.865 C 157.584 136.099,156.400 138.553,156.795 139.191 C 156.968 139.472,157.314 139.577,157.562 139.424 C 157.810 139.270,157.909 138.976,157.781 138.770 C 157.654 138.563,157.841 138.282,158.198 138.146 C 158.554 138.009,158.755 137.659,158.643 137.369 C 158.515 137.033,158.652 136.922,159.020 137.063 C 159.414 137.214,159.600 137.014,159.600 136.443 C 159.600 135.596,159.503 135.549,158.400 135.865 M65.588 139.414 C 65.312 139.747,65.226 140.150,65.398 140.310 C 65.569 140.469,65.790 140.374,65.889 140.098 C 65.988 139.821,66.233 139.697,66.434 139.821 C 66.635 139.945,66.800 139.867,66.800 139.647 C 66.800 138.929,66.102 138.795,65.588 139.414 M330.351 139.459 C 330.065 139.803,330.180 140.068,330.748 140.372 C 331.732 140.899,332.121 140.919,331.817 140.428 C 331.691 140.223,331.770 139.942,331.993 139.804 C 332.217 139.666,332.400 139.395,332.400 139.201 C 332.400 138.691,330.824 138.889,330.351 139.459 M155.395 141.211 C 155.001 142.085,154.515 142.800,154.314 142.800 C 153.843 142.800,154.077 144.509,154.600 144.894 C 155.321 145.423,155.659 145.215,155.400 144.400 C 155.219 143.829,155.328 143.600,155.781 143.600 C 156.259 143.600,156.353 143.352,156.163 142.595 C 155.959 141.782,156.034 141.638,156.556 141.838 C 156.910 141.974,157.200 141.886,157.200 141.643 C 157.200 141.399,157.026 141.200,156.813 141.200 C 156.599 141.200,156.522 140.948,156.640 140.640 C 157.166 139.270,156.037 139.787,155.395 141.211 M332.324 139.809 C 331.871 140.263,332.531 141.988,333.244 142.214 C 333.660 142.346,334.000 142.579,334.000 142.731 C 334.000 142.883,334.457 143.501,335.016 144.104 C 335.575 144.707,335.911 145.200,335.762 145.200 C 335.614 145.200,335.976 145.581,336.567 146.046 C 337.158 146.511,337.544 146.989,337.425 147.109 C 337.305 147.228,337.385 147.541,337.603 147.804 C 337.821 148.066,338.039 148.758,338.087 149.340 C 338.135 149.923,338.405 150.400,338.687 150.400 C 338.969 150.400,339.200 150.692,339.200 151.049 C 339.200 151.580,339.309 151.608,339.800 151.200 C 340.473 150.641,340.617 149.200,340.000 149.200 C 339.780 149.200,339.600 148.840,339.600 148.400 C 339.600 147.960,339.347 147.600,339.037 147.600 C 338.657 147.600,338.548 147.319,338.702 146.733 C 338.887 146.025,338.797 145.915,338.216 146.138 C 337.638 146.360,337.546 146.251,337.726 145.562 C 337.973 144.617,336.283 142.578,335.601 142.999 C 335.370 143.142,335.318 142.959,335.474 142.551 C 335.675 142.029,335.581 141.922,335.090 142.110 C 334.648 142.280,334.354 142.084,334.168 141.498 C 333.758 140.207,332.802 139.332,332.324 139.809 M66.210 140.783 C 66.067 141.016,66.238 141.317,66.592 141.452 C 67.472 141.790,67.746 141.419,67.045 140.838 C 66.651 140.510,66.389 140.493,66.210 140.783 M153.600 146.024 C 153.600 146.477,153.420 146.736,153.199 146.600 C 152.979 146.463,152.591 146.858,152.338 147.476 C 151.654 149.145,151.599 149.717,152.072 150.286 C 152.650 150.984,153.338 150.938,153.063 150.220 C 152.907 149.814,153.033 149.714,153.484 149.887 C 154.023 150.095,154.089 149.906,153.895 148.710 C 153.748 147.804,153.865 146.999,154.218 146.496 C 154.751 145.735,154.633 145.200,153.933 145.200 C 153.750 145.200,153.600 145.571,153.600 146.024 M68.804 146.195 C 68.405 146.676,68.428 146.836,68.924 147.026 C 69.782 147.356,70.102 148.395,69.550 149.060 C 69.026 149.692,69.417 150.351,69.972 149.773 C 70.443 149.284,70.554 147.632,70.194 146.500 C 69.859 145.450,69.490 145.369,68.804 146.195 M368.283 147.389 C 367.429 148.014,367.390 149.200,368.224 149.200 C 368.567 149.200,368.736 149.380,368.600 149.600 C 368.371 149.970,368.845 150.134,369.464 149.900 C 369.610 149.845,369.780 149.230,369.842 148.534 C 369.970 147.107,369.321 146.630,368.283 147.389 M151.200 150.957 C 151.200 151.264,150.930 151.618,150.600 151.745 C 149.870 152.025,149.818 152.951,150.501 153.518 C 151.204 154.102,152.392 153.166,152.206 152.174 C 152.126 151.748,152.047 151.175,152.031 150.900 C 151.988 150.211,151.200 150.266,151.200 150.957 M369.702 151.300 C 369.114 152.044,369.575 155.485,370.238 155.298 C 370.773 155.148,370.780 151.601,370.245 151.594 C 370.000 151.591,370.070 151.413,370.400 151.200 C 370.730 150.987,370.797 150.809,370.549 150.806 C 370.301 150.803,369.920 151.025,369.702 151.300 M339.954 151.900 C 339.650 153.866,339.812 156.404,340.230 156.244 C 340.517 156.134,340.678 156.334,340.617 156.728 C 340.560 157.097,340.675 157.505,340.872 157.633 C 341.080 157.768,341.052 158.337,340.807 158.982 C 340.500 159.790,340.509 160.249,340.840 160.649 C 341.423 161.350,342.245 161.398,341.726 160.700 C 341.521 160.425,341.405 159.840,341.468 159.400 C 342.099 155.000,342.082 153.883,341.388 154.149 C 340.786 154.380,340.723 154.228,340.921 153.008 C 341.094 151.944,341.009 151.600,340.575 151.600 C 340.259 151.600,339.979 151.735,339.954 151.900 M71.867 153.867 C 71.484 154.249,71.538 154.800,71.957 154.800 C 72.154 154.800,72.418 154.530,72.545 154.200 C 72.779 153.590,72.353 153.381,71.867 153.867 M149.065 155.435 C 148.661 155.989,148.441 156.729,148.575 157.079 C 148.709 157.429,148.533 158.032,148.184 158.418 C 147.760 158.886,147.691 159.209,147.977 159.386 C 148.213 159.531,148.509 159.381,148.636 159.051 C 148.763 158.721,149.121 158.548,149.432 158.667 C 149.873 158.837,149.943 158.613,149.748 157.642 C 149.549 156.644,149.633 156.400,150.178 156.400 C 150.646 156.400,150.816 156.131,150.728 155.531 C 150.547 154.300,149.920 154.263,149.065 155.435 M370.208 158.067 C 370.013 158.605,370.241 165.370,370.515 167.177 C 370.596 167.715,370.891 168.230,371.169 168.323 C 371.565 168.455,371.645 167.333,371.538 163.179 C 371.409 158.219,370.883 156.197,370.208 158.067 M74.727 159.946 C 75.016 160.130,75.302 160.612,75.362 161.018 C 75.469 161.751,76.400 162.382,76.400 161.722 C 76.400 161.111,75.169 159.600,74.677 159.606 C 74.346 159.610,74.361 159.714,74.727 159.946 M146.952 160.307 C 146.833 160.688,146.563 161.428,146.352 161.952 C 145.912 163.048,146.108 163.398,146.976 163.065 C 147.330 162.929,147.487 162.570,147.349 162.211 C 147.181 161.775,147.290 161.660,147.715 161.823 C 148.164 161.995,148.304 161.792,148.259 161.032 C 148.189 159.824,147.265 159.311,146.952 160.307 M340.758 162.251 C 340.197 162.926,340.267 163.008,341.700 163.351 C 342.607 163.569,342.800 163.482,342.800 162.854 C 342.800 161.903,341.392 161.487,340.758 162.251 M75.992 163.410 C 75.714 163.745,75.597 164.131,75.733 164.267 C 76.024 164.557,77.200 163.663,77.200 163.151 C 77.200 162.600,76.548 162.740,75.992 163.410 M145.478 164.824 C 145.355 165.295,145.077 165.571,144.861 165.438 C 144.615 165.286,144.576 165.599,144.756 166.271 C 144.914 166.863,145.286 167.429,145.582 167.527 C 145.962 167.654,146.055 167.455,145.898 166.854 C 145.745 166.267,145.859 166.000,146.265 166.000 C 146.644 166.000,146.810 165.688,146.728 165.131 C 146.555 163.959,145.755 163.762,145.478 164.824 M341.800 165.600 C 341.508 166.072,341.887 166.800,342.424 166.800 C 342.631 166.800,342.800 166.440,342.800 166.000 C 342.800 165.156,342.218 164.924,341.800 165.600 M77.953 166.500 C 77.927 166.775,77.927 167.135,77.953 167.300 C 77.979 167.465,77.820 167.600,77.600 167.600 C 77.380 167.600,77.200 167.780,77.200 168.000 C 77.200 168.220,77.582 168.400,78.049 168.400 C 78.764 168.400,78.818 168.496,78.392 169.010 C 77.742 169.793,78.195 170.268,78.976 169.620 C 79.502 169.184,79.502 169.022,78.976 168.220 C 78.649 167.721,78.495 167.017,78.634 166.656 C 78.774 166.291,78.689 166.000,78.443 166.000 C 78.199 166.000,77.979 166.225,77.953 166.500 M143.724 167.950 C 143.346 168.556,143.291 169.389,143.569 170.300 C 143.586 170.355,143.969 170.031,144.420 169.580 C 144.950 169.050,145.153 168.483,144.994 167.980 C 144.683 167.001,144.322 166.992,143.724 167.950 M340.866 168.750 C 340.432 169.026,340.443 169.131,340.927 169.317 C 341.546 169.554,342.000 169.307,342.000 168.733 C 342.000 168.310,341.550 168.317,340.866 168.750 M369.549 169.313 C 369.521 169.581,369.451 170.250,369.393 170.800 C 369.335 171.350,369.492 172.051,369.741 172.358 C 370.111 172.814,370.031 172.864,369.302 172.632 C 368.496 172.376,368.423 172.466,368.551 173.567 C 368.629 174.236,368.448 175.257,368.149 175.834 C 367.849 176.411,367.703 177.042,367.823 177.237 C 367.943 177.432,367.746 177.478,367.386 177.339 C 366.873 177.142,366.759 177.295,366.865 178.040 C 366.943 178.590,367.320 179.053,367.758 179.136 C 368.317 179.243,368.452 179.112,368.271 178.641 C 368.136 178.288,368.191 178.000,368.394 178.000 C 368.931 178.000,370.125 175.303,369.876 174.653 C 369.759 174.349,369.919 173.607,370.232 173.004 C 370.987 171.548,370.969 169.351,370.200 169.055 C 369.870 168.929,369.577 169.044,369.549 169.313 M52.400 171.243 C 52.400 172.183,52.546 172.430,53.000 172.255 C 53.330 172.129,53.600 172.180,53.600 172.370 C 53.600 172.847,54.784 173.257,55.279 172.951 C 55.535 172.793,55.485 172.559,55.143 172.320 C 54.721 172.024,54.711 171.894,55.100 171.736 C 55.805 171.450,55.727 170.666,55.020 170.937 C 54.633 171.085,54.515 170.967,54.663 170.580 C 54.828 170.150,54.564 170.000,53.643 170.000 C 52.519 170.000,52.400 170.119,52.400 171.243 M167.600 170.767 C 167.600 171.188,167.375 171.609,167.100 171.702 C 166.704 171.835,166.707 172.000,167.117 172.496 C 167.539 173.008,167.539 173.167,167.117 173.365 C 166.833 173.499,167.217 173.514,167.971 173.400 C 169.632 173.148,169.470 173.315,169.809 171.500 C 170.084 170.028,170.066 170.000,168.845 170.000 C 167.885 170.000,167.600 170.175,167.600 170.767 M142.180 171.401 C 142.244 171.977,142.094 172.669,141.848 172.939 C 141.121 173.737,140.400 175.146,140.400 175.766 C 140.400 176.083,140.090 176.652,139.712 177.031 C 139.334 177.409,139.000 178.097,138.971 178.559 C 138.943 179.022,138.521 180.100,138.035 180.956 C 137.430 182.021,137.281 182.641,137.562 182.922 C 137.844 183.204,138.054 183.124,138.230 182.667 C 138.370 182.300,138.756 182.000,139.086 182.000 C 139.532 182.000,139.620 181.734,139.427 180.966 C 139.258 180.292,139.314 180.023,139.587 180.192 C 140.315 180.642,141.304 179.271,141.033 178.188 C 140.851 177.463,140.946 177.200,141.390 177.200 C 141.992 177.200,142.052 175.919,141.477 175.344 C 140.928 174.794,141.217 174.479,142.067 174.702 C 142.762 174.883,142.883 174.793,142.674 174.249 C 142.519 173.843,142.633 173.485,142.959 173.360 C 143.749 173.057,143.550 170.640,142.721 170.480 C 142.227 170.385,142.094 170.612,142.180 171.401 M340.553 171.443 C 340.380 172.133,340.479 172.604,340.846 172.837 C 341.994 173.564,342.242 173.143,341.748 171.300 C 341.425 170.096,340.875 170.161,340.553 171.443 M52.563 174.216 C 52.622 174.774,52.893 175.449,53.164 175.716 C 53.435 175.982,53.623 176.020,53.581 175.800 C 53.539 175.580,53.540 175.310,53.582 175.200 C 54.058 173.966,53.921 173.200,53.225 173.200 C 52.638 173.200,52.480 173.442,52.563 174.216 M55.043 173.931 C 54.912 174.143,55.094 174.427,55.448 174.563 C 55.881 174.729,56.030 175.133,55.903 175.796 C 55.765 176.517,55.920 176.848,56.478 177.025 C 57.061 177.210,57.137 177.393,56.802 177.798 C 56.497 178.166,56.490 178.409,56.781 178.588 C 57.012 178.731,57.381 178.376,57.601 177.798 C 58.116 176.444,58.110 176.400,57.410 176.400 C 56.968 176.400,56.880 176.099,57.060 175.200 C 57.204 174.480,57.133 174.000,56.883 174.000 C 56.653 174.000,56.199 173.898,55.873 173.773 C 55.547 173.648,55.174 173.719,55.043 173.931 M169.773 174.306 C 169.306 174.628,169.257 178.590,169.715 179.048 C 170.192 179.525,170.035 180.000,169.400 180.000 C 169.070 180.000,168.800 180.180,168.800 180.400 C 168.800 180.620,168.970 180.800,169.177 180.800 C 169.582 180.800,169.438 182.091,168.943 182.892 C 168.311 183.914,168.415 194.000,169.057 194.000 C 169.382 194.000,169.545 193.835,169.421 193.634 C 169.297 193.433,169.421 193.177,169.698 193.065 C 170.078 192.910,170.054 192.756,169.600 192.430 C 169.223 192.160,169.148 191.889,169.400 191.700 C 169.975 191.269,170.084 189.584,169.577 188.972 C 169.308 188.648,169.278 188.177,169.497 187.726 C 169.691 187.327,169.826 185.983,169.795 184.739 C 169.753 183.012,169.865 182.527,170.270 182.682 C 170.690 182.844,170.800 181.967,170.800 178.443 C 170.800 174.144,170.685 173.678,169.773 174.306 M339.904 174.249 C 339.790 174.442,339.757 175.137,339.831 175.793 C 339.914 176.535,339.692 177.290,339.242 177.793 C 338.082 179.088,337.937 179.534,338.396 180.392 C 339.058 181.630,339.546 181.355,339.423 179.811 C 339.363 179.048,339.425 178.492,339.561 178.576 C 340.248 179.001,341.249 177.606,341.070 176.472 C 340.841 175.014,340.187 173.768,339.904 174.249 M81.200 176.200 C 81.200 177.324,81.664 177.487,82.385 176.618 C 82.942 175.947,82.620 175.200,81.776 175.200 C 81.428 175.200,81.200 175.596,81.200 176.200 M165.510 176.681 C 165.421 176.856,165.360 177.268,165.374 177.595 C 165.408 178.372,166.800 178.649,166.800 177.878 C 166.800 177.195,165.745 176.216,165.510 176.681 M164.578 179.100 C 164.650 179.705,164.729 180.350,164.754 180.533 C 164.779 180.717,165.009 180.797,165.265 180.712 C 165.893 180.502,166.055 179.149,165.528 178.514 C 164.835 177.678,164.439 177.923,164.578 179.100 M52.400 180.033 C 52.400 181.356,53.026 181.461,53.771 180.265 C 54.097 179.743,54.055 179.485,53.600 179.195 C 52.625 178.573,52.400 178.731,52.400 180.033 M57.484 180.400 C 57.621 180.923,57.922 181.162,58.273 181.027 C 58.651 180.882,58.738 180.975,58.532 181.305 C 58.008 182.143,58.038 182.840,58.607 183.058 C 58.905 183.172,59.065 183.486,58.962 183.754 C 58.749 184.310,59.797 187.028,60.359 187.375 C 60.563 187.501,60.641 188.188,60.532 188.902 C 60.371 189.953,60.431 190.105,60.847 189.700 C 61.129 189.425,61.684 189.200,62.080 189.200 C 62.546 189.200,62.800 188.902,62.800 188.357 C 62.800 187.760,62.619 187.584,62.179 187.753 C 61.789 187.902,61.659 187.827,61.830 187.551 C 61.980 187.309,61.858 186.960,61.560 186.775 C 61.218 186.564,61.064 185.893,61.144 184.963 C 61.243 183.814,61.144 183.536,60.698 183.707 C 60.272 183.870,60.172 183.679,60.309 182.963 C 60.445 182.254,60.316 182.000,59.820 182.000 C 59.343 182.000,59.216 181.781,59.384 181.250 C 59.544 180.746,59.388 180.417,58.911 180.249 C 58.520 180.112,57.989 179.899,57.731 179.777 C 57.420 179.629,57.337 179.838,57.484 180.400 M366.214 179.919 C 366.112 180.022,366.208 180.442,366.428 180.853 C 366.738 181.432,366.690 181.600,366.214 181.600 C 365.870 181.600,365.600 181.946,365.600 182.387 C 365.600 182.957,365.416 183.104,364.936 182.920 C 364.409 182.718,364.318 182.844,364.498 183.533 C 364.687 184.253,364.554 184.400,363.720 184.400 C 363.027 184.400,362.781 184.573,362.927 184.954 C 363.044 185.259,362.887 185.870,362.577 186.311 C 362.084 187.015,362.100 187.180,362.707 187.644 C 363.088 187.935,363.279 188.028,363.131 187.851 C 362.983 187.673,363.388 186.978,364.031 186.305 C 364.674 185.632,365.200 184.847,365.200 184.561 C 365.200 184.274,365.451 183.896,365.757 183.720 C 366.256 183.433,367.600 180.734,367.600 180.018 C 367.600 179.703,366.508 179.625,366.214 179.919 M163.750 181.015 C 163.886 181.369,163.728 181.730,163.377 181.864 C 162.960 182.024,162.825 182.462,162.949 183.249 C 163.076 184.057,162.963 184.400,162.568 184.400 C 162.208 184.400,162.058 184.724,162.151 185.300 C 162.317 186.326,161.388 188.400,160.763 188.400 C 160.528 188.400,160.457 188.749,160.600 189.200 C 160.777 189.757,160.672 190.000,160.254 190.000 C 159.845 190.000,159.690 190.334,159.766 191.049 C 159.904 192.338,159.183 193.993,158.482 193.997 C 158.198 193.999,157.994 194.225,158.030 194.500 C 158.197 195.790,157.931 196.723,157.160 197.551 C 156.662 198.085,156.403 198.767,156.523 199.226 C 156.654 199.729,156.396 200.260,155.788 200.738 C 155.127 201.258,154.861 201.860,154.887 202.776 C 154.907 203.491,154.693 204.219,154.411 204.393 C 154.128 204.568,154.020 204.909,154.170 205.151 C 154.346 205.436,154.202 205.499,153.762 205.330 C 153.198 205.114,153.117 205.256,153.291 206.166 C 153.429 206.887,153.311 207.336,152.948 207.475 C 152.638 207.594,152.428 208.154,152.470 208.744 C 152.553 209.891,151.795 211.600,151.204 211.600 C 151.002 211.600,150.917 212.230,151.016 213.000 C 151.123 213.833,151.023 214.400,150.771 214.400 C 150.534 214.400,150.454 214.740,150.589 215.166 C 150.723 215.588,150.617 216.066,150.354 216.228 C 150.052 216.415,149.982 216.354,150.162 216.062 C 150.331 215.788,150.193 215.600,149.824 215.600 C 149.467 215.600,149.200 215.942,149.200 216.400 C 149.200 216.840,149.016 217.200,148.792 217.200 C 148.568 217.200,148.468 217.660,148.570 218.221 C 148.691 218.891,148.548 219.322,148.154 219.473 C 147.824 219.600,147.651 219.957,147.770 220.267 C 147.889 220.577,147.733 220.928,147.423 221.047 C 147.031 221.197,146.899 221.772,146.989 222.931 C 147.060 223.849,147.032 224.375,146.926 224.100 C 146.607 223.272,145.890 223.538,146.116 224.400 C 146.251 224.916,146.128 225.200,145.770 225.200 C 145.390 225.200,145.259 225.576,145.355 226.400 C 145.450 227.209,145.319 227.600,144.955 227.600 C 144.590 227.600,144.461 227.991,144.556 228.808 C 144.634 229.473,144.543 230.112,144.354 230.228 C 143.853 230.538,144.185 232.128,144.792 232.331 C 145.112 232.437,145.198 232.321,145.016 232.027 C 144.854 231.764,145.038 231.200,145.424 230.773 C 145.991 230.147,146.042 229.811,145.690 229.038 C 145.324 228.235,145.369 228.049,145.967 227.893 C 146.404 227.779,146.893 226.987,147.227 225.853 C 147.528 224.834,147.926 224.000,148.111 224.000 C 148.296 224.000,148.349 223.840,148.228 223.645 C 148.107 223.450,148.277 223.068,148.604 222.796 C 149.331 222.193,149.374 221.135,148.700 220.456 C 148.299 220.052,148.338 220.005,148.897 220.218 C 149.352 220.391,149.664 220.261,149.797 219.842 C 150.287 218.294,150.381 217.975,150.426 217.696 C 150.452 217.533,150.702 216.950,150.981 216.400 C 151.942 214.509,152.326 212.886,151.910 212.470 C 151.649 212.209,151.768 212.096,152.257 212.137 C 152.679 212.173,153.000 211.940,153.000 211.600 C 153.000 211.270,153.270 210.781,153.600 210.513 C 153.930 210.245,154.037 210.020,153.838 210.013 C 153.639 210.006,153.750 209.685,154.084 209.300 C 154.418 208.915,154.800 207.890,154.933 207.023 C 155.066 206.156,155.450 205.292,155.787 205.103 C 156.124 204.915,156.400 204.319,156.400 203.780 C 156.400 203.241,156.591 202.800,156.824 202.800 C 157.057 202.800,157.152 202.647,157.036 202.459 C 156.920 202.271,157.084 201.776,157.400 201.359 C 157.716 200.942,157.980 200.105,157.987 199.500 C 157.994 198.895,158.180 198.400,158.400 198.400 C 158.620 198.400,158.800 198.130,158.800 197.800 C 158.800 197.470,158.941 197.200,159.113 197.200 C 159.285 197.200,159.466 196.713,159.515 196.118 C 159.564 195.522,159.784 194.856,160.002 194.638 C 160.221 194.419,160.400 193.905,160.400 193.496 C 160.400 193.087,160.562 192.853,160.760 192.975 C 160.958 193.098,161.083 192.664,161.038 192.012 C 160.989 191.299,161.181 190.740,161.519 190.610 C 161.829 190.491,161.984 190.136,161.864 189.822 C 161.744 189.509,161.844 189.185,162.088 189.104 C 162.331 189.023,162.574 188.660,162.627 188.298 C 162.680 187.935,163.225 186.595,163.838 185.319 C 165.176 182.535,165.357 181.672,164.757 180.948 C 164.141 180.207,163.458 180.252,163.750 181.015 M337.412 180.781 C 337.269 181.011,337.252 181.361,337.374 181.558 C 337.496 181.755,337.315 182.024,336.972 182.155 C 336.624 182.289,336.476 182.599,336.636 182.859 C 336.807 183.135,336.750 183.216,336.496 183.059 C 336.261 182.914,335.699 183.393,335.247 184.124 C 334.795 184.855,334.064 185.780,333.622 186.180 C 333.180 186.580,332.892 187.025,332.982 187.170 C 333.071 187.315,332.752 187.463,332.272 187.497 C 331.793 187.532,331.153 187.930,330.851 188.381 C 330.549 188.831,329.984 189.200,329.594 189.200 C 329.204 189.200,328.795 189.437,328.684 189.726 C 328.566 190.033,327.966 190.216,327.241 190.166 C 326.558 190.118,326.000 190.229,326.000 190.412 C 326.000 190.595,325.595 190.806,325.100 190.882 C 324.605 190.957,324.230 191.195,324.267 191.409 C 324.304 191.629,323.478 191.762,322.382 191.713 C 321.309 191.665,320.324 191.800,320.192 192.013 C 320.061 192.226,319.773 192.400,319.553 192.400 C 319.333 192.400,319.288 192.175,319.453 191.900 C 319.684 191.515,319.608 191.518,319.122 191.912 C 318.640 192.302,315.623 192.424,306.404 192.425 C 294.721 192.426,294.311 192.452,294.113 193.213 C 293.999 193.646,293.793 194.000,293.653 194.000 C 293.514 194.000,293.406 195.395,293.413 197.100 C 293.423 199.276,293.249 200.416,292.829 200.924 C 292.307 201.558,292.305 201.696,292.816 202.024 C 293.327 202.353,293.327 202.447,292.811 202.778 C 292.299 203.108,292.305 203.189,292.854 203.399 C 293.278 203.562,293.432 203.996,293.321 204.721 C 293.231 205.314,293.137 206.025,293.112 206.300 C 293.087 206.575,292.906 206.800,292.710 206.800 C 292.513 206.800,292.466 206.983,292.604 207.207 C 292.742 207.430,292.978 207.538,293.128 207.445 C 293.277 207.353,293.437 207.792,293.482 208.420 C 293.537 209.171,293.400 209.498,293.082 209.376 C 292.755 209.251,292.600 209.708,292.600 210.796 C 292.600 211.812,292.783 212.400,293.100 212.400 C 293.375 212.400,293.581 212.535,293.557 212.700 C 293.533 212.865,293.645 213.410,293.806 213.910 L 294.099 214.820 302.049 214.715 C 309.368 214.618,310.000 214.553,310.000 213.897 C 310.000 213.318,309.795 213.238,308.900 213.470 C 308.295 213.626,307.530 213.727,307.200 213.694 C 304.821 213.452,300.892 213.250,298.114 213.227 L 294.827 213.200 294.714 203.451 C 294.624 195.778,294.707 193.742,295.100 193.893 C 295.375 193.999,295.600 194.246,295.600 194.443 C 295.600 194.975,297.908 194.875,298.088 194.335 C 298.328 193.617,313.200 193.554,313.200 194.271 C 313.200 194.562,313.560 194.800,314.000 194.800 C 314.440 194.800,314.800 194.620,314.800 194.400 C 314.800 194.180,315.340 194.000,316.000 194.000 C 316.660 194.000,317.200 194.180,317.200 194.400 C 317.200 194.620,317.560 194.800,318.000 194.800 C 318.440 194.800,318.800 194.620,318.800 194.400 C 318.800 194.180,319.359 194.000,320.043 194.000 C 320.925 194.000,321.225 193.843,321.077 193.457 C 320.912 193.028,321.334 192.951,323.090 193.089 C 324.985 193.239,325.275 193.172,325.069 192.636 C 324.871 192.120,325.081 192.041,326.252 192.191 C 327.296 192.324,327.623 192.237,327.479 191.862 C 327.339 191.497,327.619 191.400,328.454 191.523 C 329.294 191.646,329.832 191.455,330.359 190.847 C 330.763 190.381,331.388 190.000,331.747 190.000 C 332.106 190.000,332.400 189.744,332.400 189.430 C 332.400 188.457,335.707 185.586,336.530 185.844 C 337.153 186.039,337.242 185.876,337.130 184.737 C 337.026 183.666,337.179 183.322,337.900 183.005 C 338.395 182.788,338.800 182.315,338.800 181.954 C 338.800 181.087,337.764 180.211,337.412 180.781 M83.600 182.200 C 83.600 182.530,83.761 182.800,83.957 182.800 C 84.154 182.800,84.418 182.530,84.545 182.200 C 84.685 181.835,84.545 181.600,84.187 181.600 C 83.864 181.600,83.600 181.870,83.600 182.200 M84.926 183.397 C 84.410 183.956,85.994 185.873,86.530 185.337 C 87.040 184.826,86.799 184.400,86.000 184.400 C 85.130 184.400,84.903 183.766,85.680 183.507 C 85.955 183.415,85.998 183.247,85.780 183.115 C 85.571 182.988,85.187 183.115,84.926 183.397 M136.414 184.500 C 136.211 184.995,135.675 186.278,135.222 187.351 C 134.228 189.709,134.225 189.753,135.078 189.426 C 135.686 189.192,135.682 189.246,135.038 189.958 C 134.644 190.393,134.440 190.941,134.584 191.175 C 135.016 191.873,135.600 191.657,135.600 190.800 C 135.600 190.360,135.788 190.000,136.018 190.000 C 136.280 190.000,136.338 189.474,136.173 188.595 C 135.950 187.407,136.009 187.228,136.555 187.438 C 137.017 187.616,137.200 187.457,137.200 186.876 C 137.200 186.431,137.408 185.997,137.663 185.912 C 138.223 185.726,137.783 183.600,137.184 183.600 C 136.963 183.600,136.617 184.005,136.414 184.500 M52.400 186.775 C 52.400 188.090,52.529 188.341,53.180 188.292 C 53.705 188.252,53.838 188.087,53.589 187.787 C 53.358 187.508,53.389 187.171,53.673 186.887 C 54.011 186.549,53.996 186.277,53.614 185.817 C 52.776 184.808,52.400 185.105,52.400 186.775 M85.400 185.933 C 84.955 186.379,85.246 186.800,86.000 186.800 C 86.440 186.800,86.800 186.560,86.800 186.267 C 86.800 185.754,85.814 185.520,85.400 185.933 M360.261 189.132 C 359.897 189.535,359.734 190.014,359.899 190.197 C 360.065 190.379,359.977 190.400,359.703 190.243 C 359.042 189.862,357.253 191.679,357.335 192.646 C 357.380 193.163,357.177 193.362,356.691 193.280 C 355.946 193.155,354.800 194.050,354.800 194.757 C 354.800 195.281,353.545 195.944,352.957 195.732 C 352.426 195.539,351.154 198.001,351.497 198.557 C 351.630 198.771,351.999 198.554,352.318 198.073 C 352.637 197.593,353.281 197.189,353.749 197.176 C 354.256 197.161,355.165 196.444,356.000 195.400 C 356.770 194.437,357.621 193.638,357.891 193.624 C 358.161 193.611,358.676 193.150,359.037 192.600 C 359.397 192.050,359.922 191.600,360.203 191.600 C 360.935 191.600,361.296 190.397,360.758 189.749 C 360.188 189.063,360.852 189.022,361.569 189.700 C 362.005 190.113,362.017 190.043,361.635 189.300 C 361.077 188.215,361.090 188.217,360.261 189.132 M87.238 189.176 C 86.840 189.422,86.829 189.571,87.192 189.795 C 87.455 189.957,87.850 189.910,88.070 189.690 C 88.591 189.169,87.921 188.755,87.238 189.176 M61.200 189.925 C 61.200 190.136,61.461 190.811,61.780 191.426 C 62.098 192.040,62.271 192.685,62.163 192.860 C 62.055 193.035,62.289 193.669,62.683 194.271 C 63.379 195.332,64.322 197.603,64.555 198.778 C 64.618 199.096,64.879 199.426,65.135 199.512 C 65.391 199.597,65.600 199.922,65.600 200.233 C 65.600 201.131,66.282 200.892,66.548 199.900 C 66.934 198.461,66.843 198.000,66.173 198.000 C 65.728 198.000,65.620 197.768,65.800 197.200 C 65.979 196.636,65.872 196.400,65.437 196.400 C 64.972 196.400,64.876 196.119,65.048 195.258 C 65.213 194.435,65.100 194.047,64.645 193.873 C 64.276 193.731,64.112 193.374,64.250 193.015 C 64.398 192.629,64.261 192.400,63.880 192.400 C 63.472 192.400,63.343 192.140,63.484 191.600 C 63.630 191.044,63.496 190.800,63.047 190.800 C 62.691 190.800,62.445 190.586,62.500 190.324 C 62.555 190.062,62.285 189.779,61.900 189.694 C 61.515 189.610,61.200 189.714,61.200 189.925 M133.584 192.010 C 133.169 192.266,133.129 192.489,133.440 192.800 C 133.752 193.112,134.010 193.070,134.356 192.653 C 134.935 191.955,134.397 191.507,133.584 192.010 M132.591 193.928 C 132.652 194.297,132.340 194.997,131.898 195.483 C 131.455 195.969,131.059 196.689,131.019 197.083 C 130.892 198.325,130.017 200.058,129.636 199.822 C 129.199 199.552,129.281 200.359,129.775 201.200 C 129.969 201.530,129.986 201.671,129.811 201.514 C 129.002 200.783,127.363 204.169,128.015 205.224 C 128.551 206.092,130.905 203.296,130.717 202.014 C 130.599 201.214,130.700 200.940,131.062 201.079 C 131.437 201.223,131.524 200.896,131.391 199.852 C 131.242 198.692,131.323 198.472,131.825 198.665 C 132.319 198.854,132.388 198.692,132.176 197.846 C 131.957 196.974,132.026 196.835,132.572 197.045 C 133.114 197.252,133.197 197.098,133.033 196.193 C 132.923 195.584,133.002 194.770,133.209 194.383 C 133.477 193.882,133.426 193.619,133.032 193.468 C 132.676 193.331,132.519 193.495,132.591 193.928 M168.637 194.740 C 168.122 195.573,168.476 200.854,169.062 201.079 C 169.874 201.391,170.294 200.832,169.588 200.378 C 169.144 200.093,169.118 199.923,169.484 199.687 C 170.110 199.281,169.981 194.726,169.337 194.512 C 169.082 194.427,168.767 194.530,168.637 194.740 M90.654 196.598 C 90.781 196.926,91.045 197.096,91.242 196.974 C 91.807 196.625,91.660 196.000,91.013 196.000 C 90.656 196.000,90.515 196.235,90.654 196.598 M349.749 198.179 C 349.192 199.380,350.040 199.924,350.871 198.899 C 351.321 198.344,351.311 198.299,350.800 198.600 C 350.302 198.893,350.284 198.849,350.697 198.340 C 350.970 198.003,351.075 197.608,350.930 197.463 C 350.479 197.013,350.216 197.172,349.749 198.179 M346.800 199.355 C 346.800 199.907,344.381 200.721,343.479 200.474 C 343.044 200.355,342.000 201.432,342.000 202.000 C 342.000 202.789,343.101 203.600,344.171 203.600 C 344.737 203.600,345.200 203.792,345.200 204.027 C 345.200 204.303,345.909 204.375,347.200 204.232 C 348.857 204.047,349.200 204.118,349.200 204.647 C 349.200 205.057,349.420 205.201,349.815 205.050 C 350.165 204.915,350.528 205.069,350.658 205.407 C 350.803 205.785,351.241 205.936,351.864 205.823 C 352.478 205.711,352.925 205.861,353.064 206.223 C 353.186 206.540,353.587 206.800,353.954 206.800 C 354.322 206.800,354.883 207.160,355.200 207.600 C 355.518 208.041,356.235 208.400,356.800 208.400 C 357.365 208.400,358.082 208.759,358.400 209.200 C 358.717 209.640,359.297 210.000,359.688 210.000 C 360.080 210.000,360.400 210.188,360.400 210.418 C 360.400 210.647,360.637 210.782,360.927 210.718 C 361.217 210.653,362.375 211.545,363.501 212.700 C 364.627 213.855,365.764 214.800,366.027 214.800 C 366.291 214.800,366.833 215.177,367.232 215.637 C 367.655 216.124,368.159 216.349,368.441 216.175 C 368.751 215.983,368.819 216.045,368.631 216.349 C 368.459 216.628,368.844 217.294,369.570 217.972 C 370.246 218.604,370.800 219.428,370.800 219.803 C 370.800 220.256,371.009 220.405,371.421 220.247 C 371.774 220.112,371.937 220.178,371.799 220.401 C 371.525 220.845,373.326 222.800,374.009 222.800 C 374.272 222.800,374.350 223.127,374.200 223.600 C 374.017 224.177,374.128 224.400,374.600 224.400 C 375.058 224.400,375.182 224.625,375.015 225.153 C 374.870 225.610,374.997 225.990,375.339 226.121 C 375.711 226.264,375.830 226.707,375.691 227.434 C 375.528 228.291,375.612 228.481,376.078 228.302 C 376.531 228.128,376.631 228.305,376.491 229.037 C 376.385 229.589,376.497 230.000,376.753 230.000 C 376.999 230.000,377.200 230.283,377.200 230.629 C 377.200 231.359,378.138 232.400,378.795 232.400 C 379.044 232.400,379.149 232.560,379.028 232.755 C 378.907 232.950,379.059 233.317,379.365 233.571 C 379.728 233.873,379.867 234.595,379.764 235.657 C 379.639 236.959,379.724 237.238,380.193 237.058 C 380.656 236.880,380.760 237.176,380.689 238.472 C 380.622 239.698,380.758 240.135,381.228 240.209 C 382.311 240.380,382.203 237.225,381.051 235.058 C 380.453 233.934,380.160 232.873,380.300 232.340 C 380.485 231.633,380.396 231.516,379.838 231.730 C 379.292 231.940,379.199 231.833,379.393 231.223 C 379.528 230.798,379.449 230.079,379.219 229.625 C 378.989 229.171,378.620 228.442,378.400 228.005 C 378.180 227.568,378.000 226.983,378.000 226.705 C 377.999 226.427,377.553 225.682,377.008 225.048 C 376.463 224.414,376.097 223.766,376.195 223.608 C 376.292 223.450,376.019 222.941,375.586 222.477 C 375.154 222.013,374.800 221.489,374.800 221.313 C 374.800 221.136,374.343 220.499,373.784 219.896 C 373.225 219.293,372.909 218.800,373.082 218.800 C 373.255 218.800,372.358 217.810,371.089 216.600 C 369.820 215.390,368.915 214.400,369.080 214.400 C 369.244 214.400,368.933 214.094,368.389 213.720 C 367.845 213.346,367.165 212.716,366.877 212.320 C 366.590 211.924,366.166 211.600,365.935 211.600 C 365.704 211.600,364.950 211.123,364.258 210.539 C 363.566 209.956,362.460 209.233,361.800 208.933 C 360.316 208.259,359.282 207.609,358.246 206.700 C 357.808 206.315,357.033 206.000,356.525 206.000 C 356.016 206.000,355.600 205.820,355.600 205.600 C 355.600 205.380,355.276 205.200,354.880 205.200 C 354.484 205.200,353.918 204.975,353.621 204.700 C 353.188 204.298,353.141 204.304,353.383 204.730 C 353.726 205.333,352.029 204.516,351.540 203.842 C 351.398 203.645,351.007 203.588,350.673 203.716 C 350.325 203.850,349.964 203.684,349.826 203.325 C 349.641 202.841,349.232 202.757,348.017 202.951 C 347.009 203.112,346.346 203.036,346.162 202.739 C 345.974 202.435,346.068 202.376,346.438 202.568 C 346.747 202.728,346.685 202.601,346.300 202.286 C 345.435 201.577,345.378 200.740,346.216 201.062 C 346.609 201.212,346.790 201.098,346.716 200.749 C 346.639 200.386,346.904 200.242,347.500 200.325 C 347.995 200.394,348.400 200.248,348.400 200.002 C 348.400 199.755,348.625 199.680,348.900 199.835 C 349.238 200.026,349.271 199.983,349.000 199.704 C 348.244 198.922,346.800 198.693,346.800 199.355 M91.784 200.427 C 91.639 200.661,91.616 200.949,91.733 201.067 C 92.020 201.353,92.800 200.848,92.800 200.376 C 92.800 199.865,92.109 199.899,91.784 200.427 M66.414 201.174 C 65.823 202.278,65.897 202.622,66.740 202.685 C 67.297 202.727,67.488 202.452,67.513 201.571 C 67.551 200.230,67.021 200.039,66.414 201.174 M169.011 202.018 C 169.153 202.247,169.053 202.695,168.789 203.013 C 168.490 203.374,168.409 204.120,168.573 204.996 C 168.883 206.647,169.713 206.907,169.545 205.300 C 169.481 204.695,169.549 204.006,169.695 203.769 C 170.040 203.212,169.619 201.600,169.130 201.600 C 168.922 201.600,168.869 201.788,169.011 202.018 M67.149 203.465 C 66.741 203.960,66.722 204.171,67.078 204.291 C 67.340 204.379,67.463 204.692,67.350 204.985 C 67.238 205.279,67.341 205.640,67.579 205.787 C 67.818 205.935,67.920 206.206,67.806 206.390 C 67.692 206.575,68.004 206.650,68.499 206.558 C 68.995 206.466,69.175 206.498,68.900 206.629 C 68.204 206.960,68.273 208.666,68.993 208.942 C 69.320 209.067,69.487 209.428,69.366 209.744 C 69.245 210.060,69.338 210.438,69.573 210.583 C 69.808 210.728,70.000 211.280,70.000 211.810 C 70.000 212.356,70.339 212.953,70.785 213.192 C 71.247 213.439,71.476 213.857,71.342 214.206 C 71.217 214.533,71.303 214.800,71.534 214.800 C 71.765 214.800,71.885 215.156,71.802 215.592 C 71.718 216.027,71.818 216.488,72.025 216.615 C 72.231 216.743,72.400 217.272,72.400 217.790 C 72.400 218.309,72.575 218.793,72.788 218.867 C 73.002 218.940,73.238 219.403,73.312 219.895 C 73.387 220.388,73.845 221.247,74.330 221.805 C 74.922 222.486,75.150 223.161,75.024 223.857 C 74.915 224.460,75.081 225.138,75.422 225.479 C 75.744 225.801,75.885 226.275,75.735 226.532 C 75.585 226.790,75.853 226.657,76.331 226.238 C 77.439 225.266,77.495 224.252,76.422 224.593 C 75.713 224.818,75.678 224.724,76.022 223.523 C 76.503 221.845,76.507 221.873,75.813 222.140 C 75.126 222.403,74.596 221.773,75.193 221.404 C 75.872 220.985,75.692 219.479,74.995 219.747 C 74.521 219.929,74.444 219.765,74.638 218.989 C 74.791 218.383,74.715 218.000,74.443 218.000 C 74.200 218.000,74.000 217.441,74.000 216.757 C 74.000 215.812,73.855 215.570,73.395 215.747 C 72.921 215.929,72.844 215.765,73.038 214.989 C 73.191 214.383,73.115 214.000,72.843 214.000 C 72.600 214.000,72.400 213.640,72.400 213.200 C 72.400 212.752,72.133 212.400,71.794 212.400 C 71.341 212.400,71.242 212.098,71.400 211.200 C 71.553 210.331,71.455 210.000,71.043 210.000 C 70.672 210.000,70.547 209.723,70.684 209.200 C 70.830 208.642,70.696 208.400,70.241 208.400 C 69.736 208.400,69.636 208.129,69.800 207.200 C 69.953 206.331,69.855 206.000,69.444 206.000 C 69.012 206.000,68.928 205.616,69.091 204.400 C 69.330 202.618,68.270 202.107,67.149 203.465 M93.671 203.423 C 93.813 204.107,94.507 204.279,94.707 203.679 C 94.777 203.470,94.543 203.187,94.188 203.051 C 93.742 202.880,93.582 202.995,93.671 203.423 M126.969 206.900 C 127.092 207.395,127.089 207.575,126.963 207.300 C 126.555 206.412,126.000 206.769,126.000 207.920 C 126.000 209.000,126.616 210.000,127.280 210.000 C 127.456 210.000,127.600 209.640,127.600 209.200 C 127.600 208.760,127.780 208.400,128.000 208.400 C 128.557 208.400,128.501 207.061,127.920 206.480 C 127.164 205.724,126.726 205.917,126.969 206.900 M168.684 208.001 C 168.544 208.537,168.627 208.710,168.937 208.524 C 169.287 208.314,169.288 208.387,168.938 208.823 C 168.282 209.641,168.184 303.420,168.839 303.824 C 169.399 304.170,169.986 303.295,169.994 302.100 C 169.997 301.605,170.180 301.200,170.400 301.200 C 170.620 301.200,170.800 300.840,170.800 300.400 C 170.800 299.960,170.575 299.600,170.300 299.600 C 169.966 299.599,169.788 298.880,169.763 297.436 C 169.734 295.780,169.851 295.321,170.263 295.479 C 170.694 295.645,170.800 294.738,170.800 290.876 C 170.800 287.700,170.649 286.016,170.355 285.918 C 169.735 285.712,169.749 239.084,170.369 238.877 C 170.895 238.702,170.966 231.600,170.443 231.600 C 170.246 231.600,169.986 231.339,169.863 231.020 C 169.715 230.633,169.833 230.515,170.220 230.663 C 170.705 230.849,170.800 230.162,170.800 226.476 C 170.800 223.354,170.657 222.019,170.310 221.903 C 169.867 221.756,169.605 216.777,169.627 208.900 C 169.632 207.143,169.053 206.591,168.684 208.001 M95.600 208.000 C 95.600 208.220,95.810 208.400,96.067 208.400 C 96.323 208.400,96.415 208.518,96.270 208.663 C 96.125 208.808,96.208 209.168,96.453 209.464 C 96.699 209.760,96.795 210.523,96.668 211.159 C 96.484 212.082,96.595 212.358,97.219 212.521 C 97.649 212.633,97.908 212.575,97.794 212.390 C 97.680 212.206,97.770 211.942,97.993 211.804 C 98.219 211.665,98.400 211.920,98.400 212.376 C 98.400 212.842,98.139 213.200,97.800 213.200 C 97.470 213.200,97.200 213.399,97.200 213.643 C 97.200 213.886,97.490 213.974,97.844 213.838 C 98.366 213.638,98.441 213.782,98.237 214.595 C 98.044 215.363,98.140 215.600,98.642 215.600 C 99.160 215.600,99.249 215.856,99.059 216.806 C 98.834 217.930,98.888 218.000,99.854 217.824 C 100.861 217.642,100.870 217.659,100.181 218.421 C 99.791 218.852,99.605 219.339,99.768 219.502 C 100.064 219.798,101.200 218.542,101.200 217.920 C 101.200 217.740,100.856 217.297,100.435 216.937 C 100.014 216.577,99.764 216.039,99.878 215.741 C 99.992 215.444,99.902 215.200,99.678 215.200 C 99.454 215.200,99.142 214.439,98.985 213.509 C 98.827 212.579,98.451 211.439,98.148 210.977 C 97.845 210.514,97.718 210.016,97.865 209.868 C 98.013 209.721,97.849 209.600,97.502 209.600 C 97.126 209.600,96.914 209.317,96.979 208.900 C 97.081 208.239,96.564 207.620,95.900 207.606 C 95.735 207.603,95.600 207.780,95.600 208.000 M125.261 210.300 C 125.221 210.685,125.190 211.415,125.191 211.922 C 125.194 212.514,125.031 212.743,124.736 212.560 C 124.425 212.368,124.386 212.458,124.615 212.838 C 124.880 213.278,124.792 213.269,124.212 212.800 C 123.520 212.239,123.485 212.272,123.680 213.300 C 123.823 214.050,123.721 214.400,123.361 214.400 C 123.007 214.400,122.869 214.846,122.941 215.758 C 123.024 216.816,122.917 217.066,122.458 216.890 C 122.105 216.755,121.974 216.834,122.131 217.088 C 122.435 217.580,120.517 221.200,119.952 221.200 C 119.735 221.200,119.767 221.565,120.026 222.048 C 120.381 222.712,120.371 222.829,119.982 222.589 C 119.618 222.364,119.537 222.561,119.683 223.321 C 119.792 223.893,119.715 224.324,119.511 224.280 C 118.695 224.103,117.834 227.205,118.511 227.883 C 119.073 228.444,119.232 228.405,120.166 227.470 C 121.802 225.834,121.514 224.483,119.831 225.900 L 119.000 226.600 119.800 225.600 C 120.240 225.050,120.761 224.483,120.957 224.341 C 121.154 224.198,121.216 223.703,121.095 223.240 C 120.974 222.778,121.039 222.501,121.240 222.625 C 121.737 222.932,122.800 221.815,122.800 220.986 C 122.800 220.519,122.593 220.394,122.122 220.574 C 121.504 220.812,121.499 220.772,122.070 220.117 C 122.414 219.723,122.614 219.175,122.514 218.900 C 122.393 218.564,122.565 218.488,123.036 218.669 C 123.583 218.879,123.680 218.787,123.476 218.254 C 123.313 217.828,123.438 217.484,123.807 217.342 C 124.174 217.201,124.336 216.759,124.231 216.182 C 124.107 215.499,124.215 215.307,124.631 215.467 C 125.041 215.624,125.202 215.365,125.205 214.543 C 125.214 212.790,125.635 211.600,126.247 211.600 C 126.891 211.600,126.985 210.961,126.393 210.596 C 126.170 210.458,126.091 210.177,126.217 209.972 C 126.344 209.768,126.197 209.600,125.890 209.600 C 125.584 209.600,125.301 209.915,125.261 210.300 M200.715 211.500 C 200.407 214.470,200.655 253.312,200.988 254.362 C 201.186 254.987,201.105 255.417,200.743 255.650 C 200.398 255.872,200.346 256.109,200.600 256.300 C 200.820 256.465,201.000 257.050,201.000 257.600 C 201.000 258.150,200.820 258.749,200.600 258.930 C 200.337 259.147,200.354 259.325,200.648 259.446 C 200.968 259.579,200.984 260.156,200.705 261.466 C 200.490 262.477,200.468 263.412,200.657 263.550 C 201.137 263.900,201.088 268.928,200.600 269.330 C 200.335 269.549,200.341 269.720,200.619 269.837 C 200.849 269.933,200.967 270.619,200.881 271.359 C 200.732 272.632,201.335 273.599,201.915 273.018 C 202.059 272.874,201.933 272.606,201.636 272.422 C 201.242 272.179,201.175 271.667,201.390 270.544 C 201.861 268.088,201.946 264.400,201.532 264.400 C 201.323 264.400,201.261 264.224,201.394 264.009 C 201.829 263.306,201.951 261.200,201.557 261.200 C 201.159 261.200,201.233 259.705,201.666 259.000 C 202.052 258.370,201.956 234.000,201.568 234.000 C 201.374 234.000,201.378 233.583,201.579 233.056 C 201.946 232.090,202.077 212.684,201.729 210.700 C 201.432 209.002,200.933 209.396,200.715 211.500 M311.675 213.891 C 311.793 214.506,312.477 214.591,317.863 214.656 C 321.320 214.697,324.268 214.915,324.733 215.164 C 325.181 215.404,326.358 215.600,327.348 215.600 C 328.338 215.600,329.639 215.787,330.239 216.015 C 331.498 216.493,332.486 215.926,331.723 215.163 C 331.407 214.847,331.042 214.856,330.405 215.197 C 329.611 215.622,329.550 215.588,329.784 214.852 C 330.029 214.080,329.900 214.040,327.463 214.141 C 325.567 214.219,324.933 214.118,325.071 213.760 C 325.280 213.215,316.197 213.176,315.328 213.718 C 315.068 213.880,314.737 213.821,314.592 213.587 C 314.417 213.303,314.169 213.294,313.851 213.558 C 313.553 213.805,313.153 213.815,312.787 213.583 C 311.899 213.022,311.527 213.125,311.675 213.891 M332.555 216.072 C 332.228 216.603,332.759 217.040,334.121 217.361 C 335.131 217.600,335.202 217.550,334.834 216.863 C 334.364 215.986,332.919 215.484,332.555 216.072 M335.600 217.056 C 335.600 217.839,336.775 218.784,337.434 218.531 C 337.786 218.397,337.790 218.110,337.451 217.379 C 336.943 216.284,335.600 216.049,335.600 217.056 M338.717 219.739 C 339.417 220.255,339.872 220.795,339.728 220.939 C 339.584 221.082,339.745 221.200,340.084 221.200 C 340.424 221.200,340.926 221.470,341.200 221.800 C 341.769 222.486,342.400 222.591,342.400 222.000 C 342.400 221.780,342.085 221.586,341.700 221.568 C 341.282 221.550,341.201 221.456,341.500 221.335 C 343.008 220.727,341.371 218.603,339.842 219.184 C 339.193 219.431,338.743 219.431,338.591 219.185 C 338.460 218.973,338.148 218.800,337.899 218.800 C 337.649 218.800,338.017 219.222,338.717 219.739 M101.365 220.994 C 101.480 221.632,101.843 222.304,102.171 222.488 C 102.499 222.671,102.665 223.086,102.541 223.411 C 102.416 223.735,102.514 224.000,102.757 224.000 C 103.001 224.000,103.200 224.360,103.200 224.800 C 103.200 225.240,103.369 225.600,103.576 225.600 C 104.261 225.600,104.416 224.874,103.852 224.310 C 103.547 224.004,103.175 223.199,103.026 222.519 C 102.640 220.762,101.060 219.312,101.365 220.994 M343.304 223.421 C 343.031 223.716,342.966 224.055,343.159 224.174 C 343.352 224.294,343.718 224.139,343.974 223.831 C 344.579 223.102,343.953 222.718,343.304 223.421 M344.283 224.266 C 344.166 224.455,344.308 224.933,344.597 225.328 C 344.964 225.831,345.209 225.908,345.409 225.586 C 345.566 225.331,345.425 224.853,345.095 224.523 C 344.765 224.193,344.399 224.077,344.283 224.266 M345.784 225.627 C 345.639 225.861,345.616 226.149,345.733 226.267 C 346.020 226.553,346.800 226.048,346.800 225.576 C 346.800 225.065,346.109 225.099,345.784 225.627 M76.748 226.100 C 76.440 226.691,76.670 228.794,77.120 229.500 C 77.434 229.995,77.568 230.400,77.417 230.400 C 77.266 230.400,77.430 230.687,77.782 231.039 C 78.133 231.390,78.686 231.576,79.010 231.451 C 79.669 231.199,79.825 230.000,79.200 230.000 C 78.980 230.000,78.800 229.724,78.800 229.387 C 78.800 229.051,78.545 228.677,78.233 228.557 C 77.870 228.418,77.719 227.919,77.814 227.170 C 77.934 226.220,77.114 225.397,76.748 226.100 M103.972 226.100 C 103.572 227.553,103.767 228.348,104.618 228.736 C 105.761 229.256,106.253 228.710,105.405 227.862 C 105.073 227.531,104.911 226.976,105.044 226.630 C 105.202 226.218,105.063 226.000,104.643 226.000 C 104.289 226.000,103.988 226.045,103.972 226.100 M346.232 227.548 C 346.095 227.770,346.212 228.097,346.492 228.275 C 346.771 228.454,347.000 228.870,347.000 229.200 C 347.000 229.530,347.239 229.750,347.530 229.690 C 347.894 229.614,347.980 229.834,347.803 230.390 C 347.655 230.858,347.726 231.200,347.973 231.200 C 348.208 231.200,348.400 231.451,348.400 231.757 C 348.400 232.064,348.646 232.409,348.947 232.524 C 349.298 232.659,349.454 233.236,349.382 234.138 C 349.310 235.052,349.466 235.616,349.829 235.756 C 350.136 235.874,350.281 236.245,350.152 236.581 C 350.023 236.918,350.165 237.288,350.467 237.404 C 350.822 237.540,351.007 238.218,350.988 239.308 C 350.971 240.239,351.147 241.132,351.379 241.294 C 351.671 241.497,351.667 241.590,351.367 241.594 C 351.012 241.599,350.935 242.396,351.173 243.600 C 351.194 243.710,351.401 243.530,351.632 243.200 C 351.973 242.713,352.011 242.751,351.835 243.400 C 351.614 244.217,352.178 245.555,352.577 245.157 C 353.197 244.536,353.293 241.200,352.691 241.200 C 352.193 241.200,352.105 240.809,352.240 239.200 C 352.367 237.672,352.274 237.200,351.846 237.200 C 351.165 237.200,350.684 236.119,351.217 235.789 C 351.820 235.417,351.664 234.800,350.968 234.800 C 350.474 234.800,350.394 234.538,350.600 233.600 C 350.810 232.646,350.729 232.400,350.205 232.400 C 349.742 232.400,349.617 232.176,349.785 231.647 C 349.935 231.175,349.799 230.808,349.419 230.663 C 349.071 230.529,348.914 230.168,349.050 229.815 C 349.198 229.429,349.061 229.200,348.680 229.200 C 348.272 229.200,348.143 228.940,348.284 228.400 C 348.399 227.960,348.307 227.600,348.079 227.600 C 347.852 227.600,347.399 227.498,347.073 227.373 C 346.747 227.248,346.369 227.327,346.232 227.548 M117.550 228.520 C 117.364 229.564,117.392 229.855,117.724 230.300 C 118.336 231.119,118.874 230.868,118.582 229.900 C 118.291 228.937,117.633 228.057,117.550 228.520 M52.400 230.104 C 52.400 231.166,53.827 231.588,53.912 230.551 C 53.971 229.842,53.789 229.600,53.196 229.600 C 52.758 229.600,52.400 229.827,52.400 230.104 M105.310 240.045 C 105.224 248.886,105.421 250.800,106.414 250.800 C 106.892 250.800,106.904 246.731,106.432 244.698 C 106.237 243.859,106.235 243.102,106.428 242.983 C 106.850 242.722,106.700 231.998,106.264 231.300 C 105.524 230.113,105.395 231.298,105.310 240.045 M78.576 232.171 C 77.845 232.710,77.841 232.759,78.512 233.019 C 79.009 233.211,79.152 233.552,78.986 234.147 C 78.796 234.825,78.834 234.877,79.168 234.400 C 79.495 233.932,79.589 234.113,79.594 235.220 C 79.600 236.685,80.172 237.600,81.080 237.600 C 81.872 237.600,81.700 236.805,80.900 236.768 C 80.482 236.750,80.401 236.656,80.700 236.535 C 81.007 236.411,81.200 235.557,81.200 234.324 C 81.200 232.733,81.079 232.361,80.620 232.537 C 80.233 232.685,80.115 232.567,80.263 232.180 C 80.551 231.431,79.589 231.426,78.576 232.171 M117.169 231.900 C 117.153 232.065,117.077 232.525,117.001 232.923 C 116.926 233.320,117.058 233.581,117.295 233.502 C 117.850 233.317,118.123 231.600,117.597 231.600 C 117.379 231.600,117.186 231.735,117.169 231.900 M142.962 232.589 C 143.156 233.363,143.079 233.528,142.608 233.348 C 142.135 233.166,142.037 233.384,142.150 234.358 C 142.253 235.238,142.128 235.600,141.721 235.600 C 141.328 235.600,141.227 235.853,141.400 236.400 C 141.580 236.968,141.472 237.200,141.027 237.200 C 140.597 237.200,140.400 237.577,140.400 238.400 C 140.400 239.060,140.247 239.600,140.061 239.600 C 139.874 239.600,139.706 240.152,139.687 240.828 C 139.668 241.503,139.457 242.290,139.219 242.577 C 138.762 243.128,139.047 244.400,139.629 244.400 C 140.052 244.400,140.915 242.874,141.091 241.817 C 141.162 241.387,141.418 240.913,141.659 240.764 C 141.900 240.615,142.015 240.247,141.914 239.946 C 141.813 239.646,141.967 239.220,142.256 239.000 C 142.546 238.780,142.826 238.007,142.878 237.283 C 142.930 236.558,143.294 235.621,143.686 235.199 C 144.497 234.329,144.586 233.494,143.986 232.374 C 143.385 231.250,142.664 231.402,142.962 232.589 M116.600 235.100 C 116.680 235.705,116.757 236.335,116.772 236.500 C 116.868 237.540,117.513 236.538,117.481 235.400 C 117.458 234.578,117.238 234.000,116.948 234.000 C 116.641 234.000,116.509 234.416,116.600 235.100 M81.700 238.265 C 81.029 238.536,81.070 239.389,81.823 240.845 C 82.628 242.401,83.278 242.160,83.476 240.231 C 83.602 239.003,83.515 238.747,83.037 238.931 C 82.633 239.086,82.512 238.972,82.663 238.580 C 82.889 237.992,82.606 237.899,81.700 238.265 M381.470 241.063 C 381.355 241.178,381.242 244.811,381.218 249.136 C 381.192 253.799,381.016 257.054,380.787 257.133 C 380.574 257.207,380.400 258.332,380.400 259.633 C 380.400 260.935,380.249 262.000,380.065 262.000 C 379.880 262.000,379.705 262.662,379.674 263.471 C 379.644 264.279,379.409 265.071,379.151 265.230 C 378.894 265.389,378.792 265.802,378.925 266.148 C 379.057 266.494,378.904 267.039,378.583 267.360 C 378.262 267.681,378.000 268.359,378.000 268.867 C 378.000 270.204,376.687 273.197,376.100 273.199 C 375.825 273.199,375.600 273.560,375.600 274.000 C 375.600 274.440,375.401 274.800,375.157 274.800 C 374.914 274.800,374.813 275.057,374.933 275.371 C 375.054 275.685,374.893 276.157,374.576 276.420 C 374.259 276.683,374.000 277.253,374.000 277.686 C 374.000 278.144,373.657 278.565,373.184 278.688 C 372.735 278.806,372.440 279.104,372.530 279.351 C 372.742 279.938,372.085 281.200,371.568 281.200 C 370.943 281.200,369.200 283.091,369.200 283.769 C 369.200 284.572,362.455 291.281,361.956 290.973 C 361.552 290.723,359.728 292.763,359.895 293.278 C 359.948 293.439,359.741 293.475,359.436 293.358 C 359.131 293.241,358.762 293.338,358.617 293.573 C 358.472 293.808,357.934 294.000,357.423 294.000 C 356.830 294.000,356.418 294.289,356.284 294.800 C 356.125 295.407,355.738 295.600,354.680 295.600 C 353.817 295.600,353.199 295.826,353.058 296.193 C 352.928 296.531,352.565 296.685,352.215 296.550 C 351.877 296.421,351.600 296.481,351.600 296.684 C 351.600 297.318,348.551 298.800,347.246 298.800 C 346.560 298.800,346.000 298.980,346.000 299.200 C 346.000 299.420,345.460 299.600,344.800 299.600 C 344.033 299.600,343.600 299.804,343.600 300.165 C 343.600 300.544,343.238 300.689,342.500 300.608 C 341.895 300.540,341.290 300.661,341.156 300.876 C 341.021 301.091,340.076 301.267,339.056 301.267 C 337.185 301.267,336.780 301.574,337.700 302.293 C 338.337 302.791,342.400 302.854,342.400 302.366 C 342.400 302.165,342.850 302.000,343.400 302.000 C 343.950 302.000,344.400 301.820,344.400 301.600 C 344.400 301.380,344.895 301.194,345.500 301.187 C 346.105 301.180,346.942 300.916,347.359 300.600 C 347.776 300.284,348.259 300.113,348.431 300.219 C 348.604 300.326,348.858 300.230,348.996 300.007 C 349.134 299.783,349.595 299.600,350.021 299.600 C 350.446 299.600,351.260 299.195,351.829 298.700 C 352.398 298.205,353.204 297.800,353.619 297.800 C 354.034 297.800,354.742 297.485,355.192 297.100 C 355.641 296.715,356.263 296.400,356.574 296.400 C 356.884 296.400,357.647 295.973,358.269 295.452 C 358.891 294.930,360.097 294.131,360.950 293.676 C 361.802 293.220,363.087 292.207,363.804 291.424 C 364.521 290.641,365.240 290.000,365.401 290.000 C 365.562 290.000,366.309 289.460,367.061 288.800 C 367.813 288.140,368.307 287.600,368.160 287.600 C 368.013 287.600,368.366 287.227,368.946 286.771 C 369.526 286.315,370.000 285.655,370.000 285.304 C 370.000 284.954,370.113 284.780,370.252 284.919 C 370.522 285.189,373.175 282.428,373.191 281.862 C 373.196 281.676,373.555 281.025,373.988 280.417 C 374.422 279.808,374.662 279.195,374.522 279.055 C 374.381 278.915,374.459 278.800,374.694 278.800 C 375.035 278.800,375.958 277.030,376.159 275.991 C 376.182 275.875,376.605 275.347,377.100 274.815 C 377.595 274.284,378.000 273.630,378.000 273.362 C 378.000 272.943,378.588 271.608,380.050 268.705 C 380.243 268.323,380.400 267.659,380.400 267.229 C 380.400 266.799,380.572 266.341,380.783 266.211 C 380.993 266.081,381.065 265.715,380.944 265.397 C 380.822 265.080,381.010 264.533,381.361 264.182 C 382.123 263.420,382.200 261.564,381.500 260.851 C 381.099 260.444,381.115 260.368,381.582 260.471 C 381.935 260.549,382.173 260.285,382.188 259.800 C 382.201 259.360,382.355 258.775,382.530 258.500 C 382.713 258.211,382.662 258.000,382.409 258.000 C 382.127 258.000,381.996 257.005,382.042 255.200 C 382.081 253.660,382.278 252.400,382.480 252.400 C 382.682 252.400,382.736 252.220,382.600 252.000 C 382.464 251.780,382.519 251.600,382.723 251.600 C 382.926 251.600,383.032 250.565,382.957 249.300 C 382.820 246.954,382.811 246.675,382.830 245.100 C 382.869 241.661,382.366 240.167,381.470 241.063 M83.376 242.700 C 82.915 243.473,83.061 244.800,83.606 244.800 C 83.798 244.800,83.887 245.148,83.805 245.574 C 83.722 246.004,84.063 246.758,84.572 247.274 C 85.075 247.783,85.433 248.557,85.365 248.993 C 85.298 249.429,85.480 250.059,85.768 250.393 C 86.244 250.943,86.871 252.745,86.963 253.827 C 87.037 254.680,88.324 255.647,88.663 255.103 C 89.254 254.155,89.208 253.200,88.571 253.200 C 88.128 253.200,88.020 252.967,88.200 252.400 C 88.346 251.941,88.272 251.600,88.027 251.600 C 87.792 251.600,87.600 251.221,87.600 250.757 C 87.600 250.191,87.412 249.986,87.029 250.134 C 86.579 250.306,86.505 250.062,86.681 248.976 C 86.866 247.836,86.782 247.600,86.186 247.600 C 85.790 247.600,85.585 247.482,85.730 247.337 C 86.079 246.988,85.203 245.951,84.780 246.212 C 84.599 246.324,84.617 245.839,84.819 245.134 C 85.248 243.638,85.060 243.286,84.210 243.992 C 83.830 244.307,83.600 244.338,83.600 244.073 C 83.600 243.839,83.780 243.536,84.000 243.400 C 84.466 243.112,84.543 242.000,84.096 242.000 C 83.929 242.000,83.605 242.315,83.376 242.700 M116.916 243.690 C 116.697 243.971,116.550 245.010,116.589 246.000 C 116.773 250.646,116.799 250.800,117.396 250.800 C 117.898 250.800,117.952 250.223,117.740 247.100 C 117.458 242.956,117.466 242.986,116.916 243.690 M137.829 245.811 C 137.465 246.368,137.275 246.998,137.407 247.211 C 137.539 247.425,137.354 247.600,136.997 247.600 C 136.526 247.600,136.417 247.823,136.603 248.409 C 136.921 249.413,135.998 251.600,135.256 251.600 C 134.886 251.600,134.769 251.926,134.897 252.597 C 135.006 253.165,134.854 253.790,134.544 254.046 C 134.245 254.295,134.000 254.746,134.000 255.049 C 134.000 255.352,133.843 255.600,133.650 255.600 C 133.458 255.600,133.300 256.070,133.300 256.645 C 133.300 257.221,133.071 257.832,132.792 258.005 C 132.512 258.178,132.394 258.607,132.529 258.960 C 132.691 259.380,132.558 259.600,132.142 259.600 C 131.666 259.600,131.553 259.898,131.686 260.808 C 131.791 261.518,131.647 262.195,131.336 262.453 C 131.046 262.694,130.907 263.050,131.028 263.245 C 131.149 263.440,130.967 263.600,130.624 263.600 C 130.197 263.600,130.000 263.980,130.000 264.800 C 130.000 266.195,131.143 266.503,131.484 265.200 C 131.599 264.760,131.864 264.400,132.074 264.400 C 132.283 264.400,132.346 264.061,132.215 263.647 C 132.064 263.172,132.202 262.808,132.588 262.660 C 132.925 262.531,133.200 262.183,133.200 261.888 C 133.200 261.592,133.560 260.605,134.000 259.694 C 134.440 258.784,134.801 257.715,134.803 257.319 C 134.804 256.924,135.163 256.060,135.600 255.400 C 136.037 254.740,136.397 253.840,136.399 253.400 C 136.401 252.960,136.762 252.011,137.201 251.290 C 137.641 250.570,138.000 249.720,138.000 249.402 C 138.000 249.085,138.360 248.183,138.800 247.400 C 140.163 244.974,139.302 243.564,137.829 245.811 M351.692 248.075 C 351.891 248.673,352.800 249.002,352.800 248.476 C 352.800 248.261,352.515 247.976,352.167 247.843 C 351.777 247.693,351.594 247.782,351.692 248.075 M105.501 253.097 C 105.566 254.364,105.649 255.760,105.684 256.200 C 105.719 256.640,105.604 257.676,105.429 258.502 C 105.189 259.632,105.273 260.251,105.767 261.006 C 106.146 261.584,106.231 261.964,105.969 261.904 C 105.641 261.829,105.498 264.104,105.457 270.000 L 105.400 278.200 103.461 278.059 C 102.395 277.981,101.332 278.108,101.100 278.340 C 100.807 278.633,100.440 278.635,99.904 278.349 C 98.997 277.863,98.453 278.213,99.104 278.864 C 100.158 279.918,104.531 279.737,105.604 278.596 L 106.600 277.536 106.640 266.268 C 106.662 260.071,106.572 254.820,106.440 254.600 C 106.308 254.380,106.200 253.495,106.200 252.634 C 106.200 251.772,106.016 251.006,105.791 250.931 C 105.535 250.845,105.426 251.655,105.501 253.097 M251.025 251.159 C 250.899 251.364,251.021 251.623,251.298 251.735 C 251.649 251.878,251.670 252.039,251.368 252.270 C 250.696 252.783,250.624 279.101,251.292 279.926 C 251.687 280.414,251.689 280.487,251.300 280.253 C 250.765 279.932,250.568 281.235,251.075 281.741 C 251.455 282.121,251.534 283.607,251.163 283.377 C 250.731 283.110,250.770 293.469,251.205 294.614 C 251.406 295.141,251.417 295.666,251.232 295.780 C 251.046 295.895,250.894 297.069,250.894 298.389 C 250.894 299.944,251.040 300.699,251.309 300.533 C 251.573 300.369,251.600 300.477,251.383 300.828 C 250.650 302.014,250.887 304.373,251.768 304.666 C 253.673 305.298,281.631 305.056,281.506 304.408 C 281.366 303.683,270.035 303.486,269.500 304.200 C 269.300 304.467,269.100 304.467,268.900 304.200 C 268.735 303.980,267.340 303.800,265.800 303.800 C 264.260 303.800,262.865 303.980,262.700 304.200 C 262.500 304.467,262.300 304.467,262.100 304.200 C 261.935 303.980,261.530 303.800,261.200 303.800 C 260.870 303.800,260.465 303.980,260.300 304.200 C 260.103 304.462,259.897 304.449,259.700 304.161 C 259.535 303.919,259.040 303.773,258.600 303.835 C 258.160 303.898,257.305 304.026,256.700 304.120 C 256.095 304.213,255.600 304.166,255.600 304.014 C 255.600 303.862,254.835 303.771,253.900 303.812 L 252.200 303.885 252.246 278.543 C 252.271 264.604,252.161 253.200,252.002 253.200 C 251.842 253.200,251.793 252.771,251.893 252.247 C 252.079 251.277,251.444 250.482,251.025 251.159 M351.833 252.853 C 351.893 253.954,351.737 254.526,351.333 254.681 C 350.652 254.942,350.690 258.010,351.380 258.494 C 352.175 259.051,352.323 258.795,352.219 257.035 C 352.139 255.676,352.241 255.318,352.662 255.479 C 353.517 255.807,353.271 252.066,352.407 251.604 C 351.837 251.299,351.758 251.472,351.833 252.853 M116.400 251.805 C 116.400 251.918,116.625 252.392,116.900 252.858 C 117.300 253.535,117.300 253.741,116.900 253.886 C 116.625 253.985,116.400 254.332,116.400 254.657 C 116.400 255.023,116.590 255.133,116.900 254.947 C 117.287 254.714,117.295 254.777,116.937 255.223 C 116.320 255.993,116.308 260.092,116.922 260.490 C 117.247 260.701,117.266 260.896,116.981 261.100 C 116.247 261.626,116.459 277.800,117.200 277.800 C 117.835 277.800,118.097 265.578,117.576 260.309 C 117.433 258.866,117.507 257.940,117.774 257.809 C 118.069 257.664,118.071 257.536,117.781 257.394 C 117.551 257.280,117.435 256.559,117.525 255.791 C 117.728 254.055,117.293 251.600,116.782 251.600 C 116.572 251.600,116.400 251.692,116.400 251.805 M88.844 256.147 C 88.501 256.560,88.523 256.804,88.932 257.143 C 89.573 257.676,90.000 257.352,90.000 256.333 C 90.000 255.466,89.479 255.382,88.844 256.147 M349.627 260.653 C 349.227 262.009,349.205 262.693,349.539 263.427 C 350.179 264.830,350.751 264.623,350.625 263.035 C 350.545 262.023,350.657 261.724,351.058 261.878 C 351.636 262.099,351.721 261.218,351.260 259.800 C 350.818 258.440,350.183 258.772,349.627 260.653 M90.452 260.137 C 90.207 260.432,90.124 260.790,90.267 260.933 C 90.567 261.234,91.600 260.472,91.600 259.951 C 91.600 259.424,90.957 259.528,90.452 260.137 M91.572 262.100 C 91.545 262.959,91.528 262.963,91.200 262.200 C 90.895 261.491,90.853 261.481,90.828 262.120 C 90.813 262.516,91.077 263.376,91.416 264.032 C 91.755 264.687,91.908 265.426,91.755 265.674 C 91.585 265.948,91.656 266.012,91.938 265.838 C 92.192 265.681,92.423 265.743,92.450 265.976 C 92.478 266.209,92.527 266.625,92.559 266.900 C 92.591 267.175,92.929 267.347,93.309 267.282 C 93.716 267.213,94.000 267.419,94.000 267.782 C 94.000 268.122,94.180 268.400,94.400 268.400 C 94.620 268.400,94.800 267.841,94.800 267.157 C 94.800 266.236,94.650 265.972,94.220 266.137 C 93.833 266.285,93.715 266.167,93.863 265.780 C 93.986 265.461,93.886 265.200,93.643 265.200 C 93.399 265.200,93.200 265.391,93.200 265.624 C 93.200 265.857,93.020 265.936,92.799 265.799 C 92.531 265.634,92.531 265.303,92.799 264.802 C 93.328 263.813,93.305 263.600,92.669 263.600 C 92.307 263.600,92.194 263.219,92.315 262.400 C 92.420 261.680,92.313 261.200,92.045 261.200 C 91.800 261.200,91.587 261.605,91.572 262.100 M348.650 263.918 C 348.506 264.153,348.570 264.458,348.793 264.596 C 349.445 264.998,349.262 265.646,348.534 265.518 C 348.075 265.437,347.760 265.805,347.523 266.697 C 347.333 267.411,346.585 268.588,345.860 269.313 C 345.135 270.039,344.286 271.210,343.973 271.916 C 343.660 272.622,343.204 273.200,342.958 273.200 C 342.713 273.200,341.866 273.809,341.076 274.554 C 340.287 275.298,339.542 275.808,339.420 275.687 C 339.299 275.566,339.200 275.677,339.200 275.933 C 339.200 276.190,338.862 276.400,338.449 276.400 C 338.036 276.400,337.476 276.668,337.204 276.996 C 336.932 277.323,336.552 277.494,336.360 277.375 C 336.168 277.256,335.614 277.528,335.130 277.980 C 334.645 278.431,333.869 278.800,333.405 278.800 C 332.940 278.800,332.358 279.002,332.112 279.248 C 331.865 279.495,330.956 279.738,330.091 279.788 C 329.226 279.839,328.340 279.990,328.123 280.124 C 327.906 280.258,325.345 280.409,322.432 280.458 C 319.013 280.516,316.778 280.734,316.126 281.072 C 315.571 281.360,314.955 281.496,314.758 281.374 C 314.561 281.252,314.400 281.316,314.400 281.515 C 314.400 281.714,313.905 281.832,313.300 281.778 C 312.695 281.724,312.200 281.643,312.200 281.598 C 312.200 281.307,308.911 281.372,308.536 281.670 C 308.247 281.899,307.974 281.882,307.816 281.626 C 307.571 281.230,302.900 281.367,302.484 281.782 C 302.380 281.886,301.937 281.780,301.499 281.546 C 300.866 281.207,300.766 281.231,301.010 281.660 C 301.237 282.059,301.194 282.087,300.845 281.767 C 300.586 281.528,299.545 281.408,298.532 281.498 C 297.119 281.625,296.737 281.539,296.892 281.131 C 297.033 280.762,296.684 280.578,295.747 280.528 C 294.946 280.486,294.394 280.648,294.386 280.928 C 294.378 281.188,293.939 281.928,293.411 282.574 C 292.613 283.551,292.529 283.888,292.909 284.574 C 293.561 285.753,293.559 292.330,292.906 292.581 C 292.329 292.802,292.216 294.639,292.758 294.974 C 292.956 295.096,292.978 295.811,292.807 296.567 C 292.617 297.410,292.660 298.100,292.918 298.358 C 293.149 298.589,293.298 299.773,293.248 300.989 C 293.105 304.525,295.851 306.016,299.900 304.600 C 300.175 304.504,300.400 304.587,300.400 304.785 C 300.400 305.192,306.486 305.041,307.170 304.618 C 307.414 304.468,307.533 304.215,307.435 304.056 C 307.146 303.590,304.484 303.540,304.202 303.996 C 304.061 304.225,303.732 304.280,303.472 304.118 C 302.724 303.650,302.000 303.634,302.000 304.084 C 302.000 304.346,301.796 304.329,301.445 304.037 C 301.048 303.708,300.392 303.688,299.154 303.966 C 297.912 304.245,297.340 304.226,297.138 303.900 C 296.935 303.571,296.599 303.563,295.925 303.870 C 294.938 304.320,293.552 303.524,294.404 302.998 C 294.648 302.847,294.800 298.929,294.800 292.776 L 294.800 282.800 311.200 282.800 C 321.867 282.800,327.600 282.660,327.600 282.400 C 327.600 282.180,328.140 282.000,328.800 282.000 C 329.612 282.000,330.000 281.802,330.000 281.386 C 330.000 280.881,330.354 280.819,332.000 281.038 C 333.376 281.220,334.000 281.162,334.000 280.852 C 334.000 280.603,334.360 280.400,334.800 280.400 C 335.240 280.400,335.600 280.220,335.600 280.000 C 335.600 279.780,335.960 279.600,336.400 279.600 C 336.840 279.600,337.200 279.420,337.200 279.200 C 337.200 278.980,337.759 278.800,338.443 278.800 C 339.402 278.800,339.631 278.658,339.447 278.179 C 339.312 277.826,339.378 277.663,339.601 277.801 C 340.100 278.109,342.121 276.119,341.813 275.622 C 341.685 275.414,342.032 275.331,342.601 275.435 C 343.513 275.600,343.599 275.510,343.429 274.571 C 343.258 273.625,343.335 273.547,344.229 273.772 C 345.115 273.994,345.200 273.914,345.036 273.011 C 344.888 272.194,345.045 271.954,345.860 271.749 C 346.571 271.571,346.812 271.289,346.681 270.790 C 346.562 270.333,346.838 269.901,347.462 269.567 C 347.993 269.282,348.341 268.823,348.234 268.545 C 348.109 268.219,348.264 268.127,348.675 268.284 C 349.192 268.483,349.275 268.294,349.124 267.264 C 348.995 266.387,349.101 266.000,349.469 266.000 C 350.126 266.000,350.120 265.668,349.443 264.446 C 349.128 263.878,348.807 263.665,348.650 263.918 M129.311 266.681 C 128.609 266.817,128.449 267.083,128.549 267.947 C 128.723 269.442,128.162 270.800,127.371 270.800 C 126.831 270.800,126.754 271.109,126.933 272.567 C 127.100 273.933,127.009 274.388,126.530 274.572 C 126.031 274.763,126.006 274.925,126.401 275.401 C 127.014 276.140,128.214 274.775,128.304 273.236 C 128.335 272.706,128.555 272.151,128.794 272.004 C 129.032 271.857,129.109 271.428,128.964 271.052 C 128.790 270.597,128.881 270.406,129.235 270.484 C 129.542 270.551,129.794 270.222,129.829 269.707 C 129.863 269.216,130.070 268.586,130.291 268.307 C 130.717 267.767,130.825 266.363,130.433 266.454 C 130.305 266.484,129.800 266.586,129.311 266.681 M93.200 268.249 C 93.200 268.454,93.450 268.979,93.756 269.415 C 94.061 269.851,94.255 270.715,94.187 271.335 C 94.104 272.099,94.222 272.400,94.557 272.272 C 94.898 272.141,94.997 272.438,94.879 273.241 C 94.786 273.879,94.881 274.400,95.091 274.400 C 95.301 274.400,95.687 275.112,95.948 275.983 C 96.512 277.866,96.911 278.183,97.992 277.604 C 98.910 277.113,99.106 276.197,98.220 276.537 C 97.833 276.685,97.715 276.567,97.863 276.180 C 97.994 275.840,97.849 275.600,97.512 275.600 C 97.102 275.600,96.989 275.257,97.115 274.400 C 97.244 273.516,97.131 273.200,96.683 273.200 C 96.202 273.200,96.122 272.855,96.300 271.534 C 96.490 270.118,96.427 269.904,95.882 270.113 C 95.433 270.286,95.307 270.186,95.463 269.780 C 95.586 269.460,95.456 269.200,95.174 269.200 C 94.893 269.200,94.334 268.902,93.931 268.538 C 93.529 268.174,93.200 268.044,93.200 268.249 M200.693 274.901 C 200.207 276.169,200.720 296.904,201.246 297.229 C 201.678 297.496,201.667 297.599,201.189 297.783 C 200.438 298.071,200.330 303.088,201.069 303.371 C 201.563 303.561,201.877 302.414,201.964 300.100 C 201.991 299.385,201.824 298.800,201.592 298.800 C 201.323 298.800,201.300 298.548,201.527 298.100 C 201.901 297.363,202.107 276.304,201.752 275.100 C 201.512 274.284,200.969 274.182,200.693 274.901 M125.300 276.600 C 125.300 277.294,125.519 277.600,126.015 277.600 C 126.738 277.600,126.836 277.013,126.265 276.100 C 125.758 275.289,125.300 275.526,125.300 276.600 M117.831 278.302 C 117.381 278.753,118.187 279.600,119.066 279.600 C 119.745 279.600,119.955 279.446,119.747 279.100 C 119.572 278.809,119.761 278.850,120.200 279.200 C 120.639 279.550,120.828 279.591,120.653 279.300 C 120.437 278.940,120.723 278.802,121.676 278.806 C 122.678 278.811,122.854 278.907,122.400 279.200 C 121.943 279.495,122.105 279.589,123.076 279.594 C 124.641 279.601,125.110 278.994,123.999 278.399 C 123.232 277.989,118.223 277.910,117.831 278.302 M52.800 302.400 C 53.576 302.901,54.000 302.901,54.000 302.400 C 54.000 302.180,53.595 302.003,53.100 302.006 C 52.372 302.011,52.315 302.086,52.800 302.400 M333.200 302.590 C 333.200 303.073,332.688 303.145,330.400 302.989 C 328.379 302.851,327.600 302.932,327.600 303.279 C 327.600 303.653,327.493 303.653,327.120 303.280 C 326.470 302.630,326.000 302.676,326.000 303.387 C 326.000 303.745,326.235 303.885,326.600 303.745 C 326.930 303.618,327.200 303.694,327.200 303.913 C 327.200 304.148,328.611 304.311,330.625 304.309 C 333.265 304.306,334.004 304.187,333.850 303.787 C 333.702 303.399,334.102 303.298,335.430 303.388 C 337.230 303.509,338.028 303.112,337.115 302.548 C 336.479 302.154,335.125 302.152,334.491 302.544 C 334.221 302.711,334.000 302.657,334.000 302.424 C 334.000 302.191,333.820 302.000,333.600 302.000 C 333.380 302.000,333.200 302.266,333.200 302.590 M40.400 304.229 C 40.400 304.602,40.672 304.806,41.067 304.729 C 42.070 304.535,42.208 303.600,41.233 303.600 C 40.742 303.600,40.400 303.858,40.400 304.229 M45.773 304.120 C 44.589 304.781,45.297 304.999,48.500 304.961 C 53.049 304.907,53.064 304.904,52.459 304.300 C 51.898 303.740,46.704 303.600,45.773 304.120 M169.784 304.027 C 169.639 304.261,169.642 304.575,169.791 304.724 C 170.160 305.094,201.200 305.111,201.200 304.742 C 201.200 303.841,194.759 303.262,193.736 304.072 C 193.464 304.287,193.179 304.290,193.050 304.081 C 192.928 303.884,192.017 303.846,191.026 303.996 C 190.034 304.147,189.173 304.149,189.112 304.001 C 189.050 303.854,187.308 303.895,185.240 304.094 C 183.173 304.292,181.373 304.307,181.240 304.127 C 180.882 303.640,177.522 303.567,176.959 304.034 C 176.625 304.311,176.381 304.293,176.186 303.977 C 175.977 303.639,175.810 303.660,175.567 304.054 C 175.308 304.472,175.126 304.486,174.755 304.115 C 174.431 303.791,174.047 303.761,173.563 304.020 C 173.101 304.267,172.761 304.261,172.601 304.001 C 172.271 303.467,170.117 303.486,169.784 304.027 M42.267 304.267 C 41.706 304.827,42.049 305.059,43.399 305.030 C 45.087 304.994,45.345 304.000,43.667 304.000 C 43.043 304.000,42.413 304.120,42.267 304.267 " stroke="none" fill="#fcfcfc" fill-rule="evenodd"></path><path id="path1" d="M23.022 108.764 C 22.590 109.463,23.231 110.237,24.226 110.218 C 25.229 110.200,26.122 109.321,25.750 108.719 C 25.479 108.280,23.299 108.316,23.022 108.764 M45.778 108.835 C 45.631 109.074,45.736 109.479,46.014 109.735 C 46.400 110.091,46.451 110.083,46.235 109.700 C 45.941 109.179,46.469 109.002,46.933 109.466 C 47.519 110.052,51.473 110.281,51.955 109.757 C 52.090 109.610,51.974 109.410,51.698 109.311 C 51.421 109.212,51.270 109.011,51.361 108.863 C 51.453 108.715,50.644 108.591,49.564 108.587 C 48.180 108.581,47.600 108.739,47.600 109.118 C 47.600 109.532,47.454 109.511,46.971 109.029 C 46.225 108.282,46.129 108.267,45.778 108.835 M171.289 109.107 C 171.722 109.629,171.667 109.675,170.897 109.431 C 170.350 109.257,170.000 109.313,170.000 109.573 C 170.000 109.808,170.135 110.015,170.300 110.033 C 170.465 110.052,171.026 110.113,171.548 110.170 C 172.077 110.228,172.898 109.900,173.407 109.429 L 174.318 108.584 172.551 108.541 C 171.012 108.504,170.849 108.577,171.289 109.107 M295.480 109.214 C 295.223 110.199,296.980 110.350,297.354 109.375 C 297.486 109.031,297.776 108.861,297.997 108.998 C 298.219 109.135,298.400 109.086,298.400 108.888 C 298.400 108.099,295.693 108.401,295.480 109.214 M20.429 121.528 C 20.372 125.711,20.591 127.376,21.152 127.029 C 21.612 126.745,21.657 119.200,21.199 119.200 C 20.957 119.200,20.889 118.784,21.036 118.200 C 21.178 117.634,21.114 117.200,20.888 117.200 C 20.650 117.200,20.464 118.955,20.429 121.528 M351.600 121.957 C 351.600 122.524,352.746 122.811,353.049 122.321 C 353.215 122.052,353.141 121.989,352.862 122.162 C 352.608 122.319,352.400 122.257,352.400 122.024 C 352.400 121.791,352.220 121.600,352.000 121.600 C 351.780 121.600,351.600 121.761,351.600 121.957 M20.700 129.010 C 20.594 129.565,20.626 130.092,20.771 130.182 C 20.916 130.271,21.074 129.817,21.123 129.172 C 21.233 127.735,20.964 127.631,20.700 129.010 M370.131 215.128 C 370.725 215.748,371.074 216.407,370.906 216.592 C 370.738 216.777,370.840 216.790,371.133 216.620 C 371.616 216.341,369.934 214.000,369.250 214.000 C 369.140 214.000,369.537 214.507,370.131 215.128 M106.295 243.100 C 106.211 243.265,106.274 243.940,106.434 244.600 C 106.711 245.744,106.723 245.730,106.681 244.300 C 106.636 242.776,106.567 242.563,106.295 243.100 M382.688 246.115 C 382.579 246.398,382.709 247.163,382.975 247.815 L 383.460 249.000 383.527 247.300 C 383.591 245.684,383.112 245.009,382.688 246.115 M382.950 250.900 C 383.074 251.285,382.990 251.600,382.764 251.600 C 382.538 251.600,382.464 251.780,382.600 252.000 C 382.736 252.220,382.682 252.400,382.480 252.400 C 382.278 252.400,382.081 253.660,382.042 255.200 C 381.999 256.911,382.132 258.000,382.386 258.000 C 382.613 258.000,382.800 257.640,382.800 257.200 C 382.800 256.760,382.995 256.400,383.233 256.400 C 383.472 256.400,383.584 256.175,383.483 255.900 C 383.382 255.625,383.084 255.449,382.820 255.510 C 382.556 255.570,382.456 255.432,382.598 255.203 C 382.739 254.974,382.995 254.873,383.165 254.978 C 383.650 255.278,383.644 251.471,383.158 250.800 C 382.792 250.293,382.759 250.308,382.950 250.900 M119.821 279.155 C 120.230 279.563,121.685 279.591,122.331 279.202 C 122.841 278.895,122.598 278.818,121.311 278.877 C 120.382 278.920,119.712 279.045,119.821 279.155 M20.458 288.466 C 20.452 292.057,20.562 293.201,20.862 292.669 C 21.514 291.514,21.342 284.409,20.645 283.712 C 20.546 283.613,20.462 285.753,20.458 288.466 " stroke="none" fill="#fcf4f6" fill-rule="evenodd"></path><path id="path2" d="" stroke="none" fill="#fcfc100" fill-rule="evenodd"></path><path id="path3" d="" stroke="none" fill="#fcfc100" fill-rule="evenodd"></path><path id="path4" d="" stroke="none" fill="#fcfc100" fill-rule="evenodd"></path></g></svg>