<?xml version="1.0" standalone="no"?>
<!DOCTYPE svg PUBLIC "-//W3C//DTD SVG 20010904//EN"
 "http://www.w3.org/TR/2001/REC-SVG-20010904/DTD/svg10.dtd">
<svg version="1.0" xmlns="http://www.w3.org/2000/svg"
 width="500.000000pt" height="500.000000pt" viewBox="0 0 500.000000 500.000000"
 preserveAspectRatio="xMidYMid meet">
<metadata>
Created by potrace 1.11, written by Peter Selinger 2001-2013
</metadata>
<g transform="translate(0.000000,500.000000) scale(0.100000,-0.100000)"
fill="#000000" stroke="none">
<path d="M2350 4469 c-52 -4 -112 -9 -132 -13 -21 -3 -55 -9 -75 -12 -142 -21
-372 -98 -522 -173 -528 -266 -893 -725 -1047 -1316 -3 -11 -9 -47 -15 -80 -5
-33 -12 -71 -14 -85 -25 -137 -25 -447 -1 -587 3 -18 8 -48 12 -65 35 -212
140 -481 264 -683 206 -336 535 -619 900 -774 41 -18 84 -36 95 -41 55 -24
237 -74 310 -86 22 -3 43 -8 46 -9 35 -22 502 -27 624 -7 116 19 237 49 340
84 79 26 296 126 380 176 40 23 189 123 195 131 3 3 37 32 75 63 83 67 209
198 282 293 167 219 284 459 352 725 16 63 32 133 35 155 3 22 9 65 13 95 15
108 8 458 -11 560 -39 209 -109 421 -191 575 -21 39 -44 83 -53 100 -16 30
-54 91 -70 110 -4 6 -18 26 -32 45 -104 150 -287 336 -440 446 -387 280 -834
406 -1320 373z"/>
</g>
</svg>
